<?xml version="1.0" encoding="utf-8"?>
<!-- Generator: Adobe Illustrator 26.2.1, SVG Export Plug-In . SVG Version: 6.00 Build 0)  -->
<svg version="1.1" xmlns="http://www.w3.org/2000/svg" xmlns:xlink="http://www.w3.org/1999/xlink" x="0px" y="0px"
	 viewBox="0 0 575 247.3" style="enable-background:new 0 0 575 247.3;" xml:space="preserve">
<style type="text/css">
	.st0{display:none;}
	.st1{display:inline;}
</style>
<g id="Layer_1" class="st0">
	<g id="labels" class="st1">
		<path d="M62.2,217.9H50.9v-82.9H36.7c-10.8,0-13.6,6.6-13.5,14.5v7.8h14.1v9.7H23.2v50.9H12V167H0.3v-9.7H12V151
			c0-15.8,6.6-26.7,22.8-26.7h27.4L62.2,217.9z"/>
		<path d="M74.2,134.9c0.1-4.3,3.6-7.6,7.9-7.5c0,0,0,0,0,0c4.4,0,8,3.2,8,7.5s-3.6,7.5-8,7.5C77.9,142.6,74.4,139.2,74.2,134.9
			C74.2,135,74.2,134.9,74.2,134.9z M76.6,157.2h11.3v60.6H76.6V157.2z"/>
		<path d="M165.5,187.6c0,19.2-13.6,31.8-30.2,31.8c-9.1,0-17.6-3.9-21.7-11v38.9h-11.3v-90.1h11.3v9.5c4-6.9,12.9-11,21.5-11
			C151.7,155.7,165.5,168.5,165.5,187.6z M154,187.7c0-12.1-8.8-21.4-20-21.4c-10.8,0-20.5,8.4-20.5,21.4c-0.2,11.4,9,20.8,20.4,21
			c0,0,0,0,0.1,0C145.2,208.8,154,199.9,154,187.7L154,187.7z"/>
		<path d="M226.1,206.9v10.9h-53.3v-5.1l31.9-38.5c5.3-6.5,9-13.4,9-17.3c0-8.6-6.1-14.3-15.3-14.3s-15.6,5.2-16.2,12.9l-10.1-2.2
			c1.7-12.9,11.8-21.4,26.3-21.4c16,0,26.6,10,26.6,25c0,6.6-4.3,15.3-9.9,21.9l-23.4,28L226.1,206.9z"/>
		<path d="M28.7,32v49.4c0,20.2-3.4,27.8-19.6,34.9H7.5L0,102v-1.4c7.4-3.8,8.7-7.3,8.7-20.9V32H28.7z M6.4,12.5
			C6.3,5.6,11.8,0,18.7,0c6.8,0,12.4,5.5,12.5,12.3c0,6.8-5.5,12.4-12.3,12.5c0,0-0.1,0-0.1,0C11.9,24.8,6.4,19.3,6.4,12.5z"/>
		<path d="M41.9,12.5C41.9,5.6,47.4,0,54.2,0s12.4,5.5,12.5,12.3c0,6.8-5.5,12.4-12.3,12.5c0,0-0.1,0-0.1,0
			C47.4,24.8,41.9,19.3,41.9,12.5z M64.2,96.9V32h-20v64.9L64.2,96.9z"/>
		<path d="M125.5,92.5l-0.5,1.4c-4.5,3-9.9,4.6-15.3,4.5c-12.9,0-24.4-8.3-24.4-25.2V46.9H74V32h11.3V13.5l18.3-2.5l1.6,0.9V32h19.1
			v14.8h-19.1v24.4c0,6.8,3.2,10.2,8.1,10.2c2-0.1,4-0.8,5.6-2l1.3,0.7L125.5,92.5z"/>
		<path d="M180.8,92.5l-0.5,1.4c-4.5,3-9.9,4.6-15.3,4.5c-12.8,0-24.4-8.3-24.4-25.2V46.9h-11.3V32h11.3V13.5l18.3-2.5l1.5,0.9V32
			h19.1v14.8h-19.1v24.4c0,6.8,3.2,10.2,8,10.2c2-0.1,4-0.8,5.6-2l1.3,0.7L180.8,92.5z"/>
		<path d="M205,69.4c1.2,9.7,9.2,14.3,18.3,14.3c6.9,0,13.8-2.5,18-7.1h1.4l9.1,8.7v1.4c-7.3,8.6-19.2,11.8-29.5,11.8
			c-19.5,0-36.9-11.7-36.9-33.9c0-19.8,14-34.1,34.9-34.1c20.6,0,34.4,14,34.4,33.6c0,1.8-0.1,3.6-0.4,5.3H205z M204.9,59h30.8
			c-0.8-9.2-6.9-14.4-15.3-14.4S205.5,50.1,204.9,59L204.9,59z"/>
		<path d="M315.5,34.6l-4.2,14.2l-1.2,0.7c-2.7-1.4-5.8-2.1-8.8-2.1c-6.8,0-12.3,4.9-12.3,14v35.4h-20V52.8c0-3-0.8-4.8-3-4.8
			c-0.7,0-1.3,0.2-1.8,0.7l-1.3-0.7l-2.5-13.4l0.8-1.4c3.1-1.9,6.7-2.8,10.4-2.7c5.4-0.2,10.4,3,12.6,8c4.9-5.1,11.6-8,18.7-8
			c4.1,0,8.2,0.9,11.9,2.7L315.5,34.6z"/>
		<path d="M394.2,64.5c0,19.1-13.5,34-32.6,34c-8.1,0-15.9-3.1-21.7-8.7v7.1h-17V11l18.6-2.5l1.5,0.9v27.1c5.4-4,11.9-6.1,18.6-6.1
			C380.9,30.5,394.2,45.4,394.2,64.5z M373.9,64.5c-0.1-9.6-6.4-16.9-15.8-16.9c-9.1,0-15.8,6.2-15.8,16.9s6.8,16.9,15.8,16.9
			C367.5,81.4,373.9,74.1,373.9,64.5z"/>
		<path d="M473.8,94.3l-0.8,1.4c-3.1,1.9-6.7,2.8-10.4,2.7c-5.6,0-10.4-2.5-13-7.3c-5.3,4.6-12.1,7.2-19.2,7.3
			c-17.9,0-28.2-10.9-28.2-27.5V32h20v37.5c0,7.4,4.3,11.9,11.3,11.9s11.7-5.1,11.7-12.3V32h20v44.1c0,3,0.9,4.8,3,4.8
			c0.7,0,1.3-0.2,1.8-0.7l1.3,0.7L473.8,94.3z"/>
		<path d="M555.2,34.6L552.8,48l-1.3,0.7c-0.6-0.5-1.3-0.7-2-0.7c-2.1,0-2.8,1.8-2.8,4.8v31.8c0,21.9-16.2,32.3-36.7,32.3
			c-13.9,0-24.5-4.9-31.1-12.3v-1.3l8.3-10.4h1.4c4.7,5.3,12.8,9.3,21.7,9.3c9.1,0,17.5-4.4,17.5-14.1V86c-5.7,3.5-12.3,5.4-19,5.3
			c-18.3,0-31.9-13-31.9-30.4s13.6-30.5,31.9-30.5c8-0.1,15.8,2.6,22.1,7.5c2.6-4.8,7.4-7.5,13.6-7.5c3.5,0,7,0.9,10,2.7L555.2,34.6
			z M527.9,61c0-9.3-6.3-15.8-15.4-15.8S497,51.6,497,61s6.2,15.7,15.4,15.7S527.9,70.2,527.9,61z"/>
		<path d="M575,38.4c0,4-3.2,7.2-7.1,7.2c-4,0-7.2-3.2-7.2-7.1s3.2-7.2,7.1-7.2c0,0,0,0,0,0c3.9-0.1,7.1,3,7.2,6.8
			C575,38.2,575,38.3,575,38.4z M562,38.4c0.1,3.3,2.7,5.8,6,5.8c3.3-0.1,5.8-2.7,5.8-6c-0.1-3.2-2.7-5.8-5.9-5.8
			c-3.2,0-5.9,2.5-5.9,5.7C562,38.3,562,38.4,562,38.4z M567.5,39h-1.4v3.7h-1.2V34h3.1c2,0,3,0.9,3,2.6c0.1,1.2-0.8,2.2-2,2.3
			c0,0-0.1,0-0.1,0l2.1,3.7h-1.5L567.5,39z M569.8,36.5c0-0.8-0.6-1.4-1.3-1.4c-0.1,0-0.2,0-0.2,0h-2.1v2.8h2.1
			c0.8,0.1,1.4-0.5,1.5-1.2C569.7,36.6,569.8,36.5,569.8,36.5L569.8,36.5z"/>
	</g>
</g>
<g id="Layer_2">
	<g id="labels_00000114056938407653498170000004140281555576664999_">
		<path d="M3.5,201.2H14c0.1,5.2,4.7,9.5,12.1,9.5c7.6,0,12.2-3.8,12.2-8.7c0-4.5-3.5-6.9-8.3-7.9l-8.3-1.9
			c-10.1-2.7-16-7.7-16-17.4c0-10,8.6-17.9,20.8-17.9c10.2,0,20.9,5.4,20.9,17.6H36.4c-0.1-4.7-4.9-7.8-9.7-7.8
			c-5.8,0-9.7,3.8-9.7,8.4c0,4.1,3.9,6.4,7.8,7.3l8.9,2.2c12.6,3.1,15.8,10.6,15.8,17.5c0,11.3-10.9,18.4-23.5,18.4
			C15.2,220.5,4,213.7,3.5,201.2z"/>
		<path d="M155.1,183.9v35h-11.3v-34.4c0-10.1-5.6-16.9-14.4-16.9c-10.8-0.1-17.3,9.2-16.2,20.9l-0.1-0.5V219h-11.3v-34.4
			c0-10.2-5.6-16.9-13.6-16.9c-8.6,0-17.1,5.6-17.1,18.4V219H59.7v-60.6H71v9.2c3.1-6.5,10.9-10.8,19.5-10.8c8.8,0,16.5,4.7,20,12.9
			c5.4-10.9,15.1-12.9,21.1-12.9C146.8,156.8,155.1,166.9,155.1,183.9z"/>
		<path d="M227.9,158.4V219h-11.3v-10.8c-4,7.3-12.5,12.3-22.2,12.3c-15.8,0-29.7-13.4-29.7-31.9c0-17.9,13.1-31.8,30.2-31.8
			c9.1,0,17.6,3.9,21.7,11v-9.5L227.9,158.4z M216.6,188.6c0-11.5-9.3-20.9-20.8-21.1c-10.9,0-19.7,9.7-19.7,21.1s8.8,21.3,20,21.3
			C206.8,209.9,216.6,200.9,216.6,188.6z"/>
		<path d="M278.7,159.2l-1.8,10.6c-2.8-1.3-5.8-2-8.8-2.1c-12.1,0-16.9,13.1-16.9,29.1V219h-11.4v-60.6h11.4v13.7
			c3.1-10.6,8.9-15.3,17-15.3C272.5,156.8,276.9,158,278.7,159.2z"/>
		<path d="M319.1,168.1H306V219h-11.3v-50.9h-10.9v-9.7h10.9v-22.8H306v22.8h13.1L319.1,168.1z"/>
		<path d="M377.5,194.2c0,15.6-12.2,26.4-29.5,26.4c-11.8,0.1-22.6-6.8-27.4-17.6l9.4-5.3c3.8,7.6,10.4,12.3,17.6,12.3
			c10.6,0,18.4-6.4,18.4-15.3c0-9.6-7.5-16-18-16h-8.8v-9.7h8c9,0,14.8-5.3,14.8-13c0-7.3-5.5-12.1-13.6-12.1c-6,0.1-11.6,3-15,8
			l-7.8-6.5c4.3-7.4,13.5-12.3,23.1-12.3c14.8,0,24.7,8.9,24.7,22.6c0,8-4,14.7-10.6,17.8C371.7,176.2,377.7,184.7,377.5,194.2z"/>
		<path d="M29.2,32.2v49.4c0,20.2-3.4,27.8-19.6,34.9H8l-7.5-14.4v-1.4c7.4-3.8,8.7-7.3,8.7-20.9V32.2H29.2z M6.9,12.6
			c0-6.8,5.5-12.4,12.3-12.5c6.8,0,12.4,5.5,12.5,12.3c0,6.8-5.5,12.4-12.3,12.5c0,0-0.1,0-0.1,0C12.4,24.9,6.9,19.4,6.9,12.6z"/>
		<path d="M42.4,12.6c0-6.8,5.5-12.4,12.3-12.5s12.4,5.5,12.5,12.3c0,6.8-5.5,12.4-12.3,12.5c0,0-0.1,0-0.1,0
			C47.9,24.9,42.4,19.4,42.4,12.6z M64.7,97.1V32.2h-20v64.9L64.7,97.1z"/>
		<path d="M126,92.7l-0.5,1.4c-4.5,3-9.9,4.6-15.3,4.5c-12.9,0-24.4-8.3-24.4-25.2V47H74.5V32.2h11.3V13.6l18.3-2.5l1.6,0.9v20.1
			h19.1V47h-19.1v24.4c0,6.8,3.2,10.2,8.1,10.2c2-0.1,4-0.8,5.6-2l1.3,0.7L126,92.7z"/>
		<path d="M181.2,92.7l-0.5,1.4c-4.5,3-9.9,4.6-15.3,4.5c-12.9,0-24.4-8.3-24.4-25.2V47h-11.3V32.2H141V13.6l18.3-2.5l1.5,0.9v20.1
			H180V47h-19.1v24.4c0,6.8,3.2,10.2,8,10.2c2-0.1,4-0.8,5.6-2l1.3,0.7L181.2,92.7z"/>
		<path d="M205.5,69.6c1.2,9.7,9.2,14.3,18.3,14.3c6.9,0,13.8-2.5,18-7.1h1.4l9.1,8.7v1.4c-7.3,8.6-19.2,11.8-29.5,11.8
			C203.4,98.6,186,87,186,64.8c0-19.9,14-34.1,34.9-34.1c20.6,0,34.4,14,34.4,33.6c0,1.8-0.1,3.6-0.4,5.3H205.5z M205.4,59.2h30.8
			c-0.8-9.2-6.9-14.4-15.3-14.4S206,50.2,205.4,59.2L205.4,59.2z"/>
		<path d="M315.9,34.8L311.8,49l-1.2,0.7c-2.7-1.4-5.8-2.1-8.8-2.1c-6.8,0-12.3,4.9-12.3,14V97h-20V53c0-3-0.8-4.8-3-4.8
			c-0.7,0-1.3,0.2-1.8,0.7l-1.3-0.7l-2.5-13.4l0.8-1.4c3.1-1.9,6.7-2.8,10.4-2.7c5.4-0.2,10.4,3,12.6,8c4.9-5.1,11.6-8,18.7-8
			c4.1,0,8.2,0.9,11.9,2.7L315.9,34.8z"/>
		<path d="M394.7,64.6c0,19.1-13.5,34-32.6,34c-8.1,0-15.9-3.1-21.7-8.7v7.1h-17V11.2L342,8.7l1.5,0.9v27.1c5.4-4,11.9-6.1,18.6-6.1
			C381.3,30.6,394.7,45.6,394.7,64.6z M374.3,64.6c-0.1-9.6-6.4-16.9-15.8-16.9c-9.1,0-15.8,6.2-15.8,16.9s6.8,16.9,15.8,16.9
			C368,81.5,374.3,74.2,374.3,64.6z"/>
		<path d="M474.2,94.5l-0.8,1.4c-3.1,1.9-6.7,2.8-10.4,2.7c-5.6,0-10.4-2.5-13-7.3c-5.3,4.6-12.1,7.2-19.2,7.3
			c-17.9,0-28.2-10.9-28.2-27.5V32.2h20v37.5c0,7.4,4.3,11.9,11.3,11.9s11.7-5.1,11.7-12.3V32.2h20v44.1c0,3,0.9,4.8,3,4.8
			c0.7,0,1.3-0.2,1.8-0.7l1.3,0.7L474.2,94.5z"/>
		<path d="M555.7,34.8l-2.5,13.4l-1.3,0.7c-0.5-0.5-1.2-0.7-1.9-0.7c-2.1,0-2.9,1.8-2.9,4.8v31.8c0,21.9-16.2,32.3-36.7,32.3
			c-13.9,0-24.5-4.9-31.1-12.3v-1.3l8.3-10.4h1.4c4.7,5.3,12.8,9.3,21.7,9.3c9.1,0,17.5-4.4,17.5-14.1v-2.1
			c-5.7,3.5-12.3,5.4-19,5.3c-18.3,0-31.9-13-31.9-30.4s13.6-30.5,31.9-30.5c8-0.1,15.8,2.6,22.1,7.5c2.6-4.8,7.4-7.5,13.6-7.5
			c3.5,0,7,0.9,10,2.7L555.7,34.8z M528.4,61.1c0-9.3-6.4-15.8-15.5-15.8c-9.1,0-15.4,6.5-15.4,15.8s6.2,15.7,15.4,15.7
			C522.1,76.8,528.4,70.4,528.4,61.1L528.4,61.1z"/>
		<path d="M575.5,38.6c0,4-3.2,7.2-7.1,7.2c-4,0-7.2-3.2-7.2-7.1s3.2-7.2,7.1-7.2c0,0,0,0,0,0c3.9-0.1,7.1,3,7.2,6.8
			C575.5,38.4,575.5,38.5,575.5,38.6z M562.5,38.6c0.1,3.3,2.7,5.8,6,5.8c3.3-0.1,5.8-2.7,5.8-6c-0.1-3.2-2.7-5.8-5.9-5.8
			c-3.2-0.1-5.9,2.5-5.9,5.7C562.4,38.4,562.4,38.5,562.5,38.6L562.5,38.6z M568,39.1h-1.4v3.7h-1.2v-8.6h3.1c2,0,3,0.9,3,2.6
			c0.1,1.2-0.8,2.2-1.9,2.4c-0.1,0-0.1,0-0.2,0l2.1,3.7h-1.5L568,39.1z M570.2,36.6c0-0.8-0.6-1.4-1.3-1.4c-0.1,0-0.2,0-0.2,0h-2.1
			V38h2.1c0.8,0.1,1.4-0.4,1.5-1.2C570.2,36.8,570.2,36.7,570.2,36.6z"/>
	</g>
</g>
</svg>
