<?xml version="1.0" encoding="utf-8"?>
<!-- Generator: Adobe Illustrator 26.3.1, SVG Export Plug-In . SVG Version: 6.00 Build 0)  -->
<svg version="1.1" xmlns="http://www.w3.org/2000/svg" xmlns:xlink="http://www.w3.org/1999/xlink" x="0px" y="0px"
	 viewBox="0 0 1228.68 127.21" style="enable-background:new 0 0 1228.68 127.21;" xml:space="preserve">
<style type="text/css">
	.st0{display:none;}
	.st1{display:inline;}
	.st2{fill:#010101;}
</style>
<g id="LOGOS">
	<g>
		<g>
			<path d="M0,11.23l18.66-2.48l1.43,1.04v67.07c0,3,0.78,4.83,2.87,4.83c0.91,0,1.57-0.26,1.96-0.65l1.3,0.65l2.48,13.44
				l-0.78,1.44c-2.87,1.69-6.52,2.74-10.7,2.74C6.13,99.31,0,92.39,0,80.26V11.23z"/>
		</g>
		<g>
			<path d="M33.27,12.8c0-6.91,5.48-12.52,12.4-12.52S58.19,5.88,58.19,12.8c0,6.92-5.61,12.4-12.53,12.4S33.27,19.71,33.27,12.8z
				 M55.71,97.74V32.5H35.62v65.24H55.71z"/>
		</g>
		<g>
			<path d="M91.33,50.24l9.26,25.44l16.44-43.19h17.75l0.78,1.3l-26.62,63.94h-16.7L74.37,55.2c-2.09-5.35-4.31-6.65-6.39-6.65
				c-1.3-0.13-2.48,0.26-3.39,1.04l-1.3-0.65l-2.61-14.22l0.78-1.44c2.35-1.43,5.74-2.35,9.53-2.35
				C81.67,30.93,87.03,37.46,91.33,50.24z"/>
		</g>
		<g>
			<path d="M153.83,70.08c1.17,9.79,9.26,14.35,18.4,14.35c6.91,0,13.83-2.48,18.14-7.18h1.44l9.13,8.74v1.44
				c-7.31,8.61-19.31,11.87-29.62,11.87c-19.57,0-37.06-11.74-37.06-34.06c0-19.96,14.09-34.32,35.1-34.32
				c20.75,0,34.58,14.09,34.58,33.79c0,1.96-0.13,3.65-0.39,5.35H153.83z M153.7,59.64h30.93c-0.78-9.26-6.92-14.48-15.4-14.48
				C160.61,45.16,154.35,50.64,153.7,59.64z"/>
		</g>
		<g>
			<path d="M211.89,11.23l18.66-2.48l1.43,1.04v67.07c0,3,0.78,4.83,2.87,4.83c0.91,0,1.57-0.26,1.96-0.65l1.3,0.65l2.48,13.44
				l-0.78,1.44c-2.87,1.69-6.52,2.74-10.7,2.74c-11.09,0-17.22-6.92-17.22-19.05V11.23z"/>
		</g>
		<g>
			<path d="M316.14,33.8l-29.88,66.28c-6.13,13.7-15.27,17.22-24.27,17.22c-4.83,0-8.48-0.91-11.61-2.74l-0.78-1.44l3.91-12.27
				l1.17-0.65c1.43,0.78,2.87,1.44,5.35,1.44c3.52,0,7.05-1.44,9.13-5.74l1.83-3.65L253.24,55.2c-2.61-5.48-4.44-6.65-6.39-6.65
				c-1.44-0.13-2.61,0.26-3.52,1.04l-1.17-0.65l-2.61-14.22l0.65-1.44c2.48-1.56,5.74-2.35,9.53-2.35
				c10.83,0,15.92,6.91,21.27,19.31l9.66,21.92l17.22-39.67h17.49L316.14,33.8z"/>
		</g>
	</g>
	<g>
		<g>
			<path d="M320.65,32.89h6.39v1.11h-2.57v7.52h-1.27v-7.52h-2.55V32.89z M336.96,41.51l-0.75-6.31l-2.63,5.39h-1.02l-2.61-5.37
				l-0.77,6.29h-1.32l1.09-8.63h1.11l3.03,6.33l3.01-6.33h1.11l1.07,8.63H336.96z"/>
		</g>
	</g>
	<g>
		<path d="M351.67,67.11c0-19.39,14.29-32.09,31.4-32.09s31.53,12.71,31.53,32.09s-14.41,32.23-31.53,32.23
			S351.67,86.5,351.67,67.11z M403.41,67.11c0-12.58-9.27-21.35-20.33-21.35c-10.94,0-20.08,8.78-20.08,21.35
			c0,12.71,9.14,21.48,20.08,21.48C394.14,88.59,403.41,79.81,403.41,67.11z"/>
		<path d="M480.36,62.39v35.37h-11.2V63.05c0-10.22-6.18-16.77-14.54-16.77s-18.4,5.11-18.4,18.34v33.14h-11.2V36.58h11.2v9.3
			c3.6-7.47,13.38-10.87,19.95-10.87C471.1,35.01,480.49,45.23,480.36,62.39z"/>
		<path d="M567.61,74.57h-38.09l-8.62,23.19h-12.23L542.39,7.5h12.35l33.72,90.26h-12.23L567.61,74.57z M563.75,64.09l-15.19-40.87
			l-15.19,40.87H563.75z"/>
		<path d="M593.35,3.31h11.2v94.45h-11.2V3.31z"/>
		<path d="M675.2,72.08h-48.9c1.67,10.87,9.39,16.51,19.69,16.51c7.34,0,14.16-3.41,17.5-9.56l9.78,3.93
			c-5.28,10.61-16.09,16.38-27.67,16.38c-17.12,0-30.89-12.97-30.89-32.36s13.77-31.96,30.89-31.96s29.86,12.58,29.86,31.96
			C675.45,68.68,675.33,70.38,675.2,72.08z M664.26,62.26c-1.42-10.48-8.75-16.51-18.66-16.51c-10.17,0-17.37,5.5-19.18,16.51
			H664.26z"/>
		<path d="M722.17,97.76l-16.99-23.97l-17.12,23.97h-13.38l23.81-33.67l-19.43-27.51h13.51l12.61,18.21l12.61-18.21h13.64
			l-19.56,27.64l23.68,33.54H722.17z"/>
		<path d="M797.45,36.58v61.18h-11.2V86.89c-3.99,7.34-12.35,12.45-22.01,12.45c-15.7,0-29.47-13.49-29.47-32.23
			c0-18.08,13-32.09,29.99-32.09c9.01,0,17.5,3.93,21.49,11.13v-9.56H797.45z M786.26,67.11c0-12.58-10.42-21.35-20.59-21.35
			c-10.81,0-19.56,9.83-19.56,21.35c0,11.66,8.75,21.48,19.82,21.48C776.6,88.59,786.26,79.55,786.26,67.11z"/>
		<path d="M897.96,3.31v94.45h-11.2V88.2c-3.99,6.94-12.74,11.13-21.36,11.13c-16.47,0-30.11-12.97-30.11-32.23
			c0-19.39,13.51-32.09,29.99-32.09c9.01,0,17.5,3.93,21.49,11.13V3.31H897.96z M886.76,66.98c0-13.23-10.55-21.22-20.46-21.22
			c-10.94,0-19.69,8.91-19.69,21.22c0,12.18,8.75,21.61,19.69,21.61C877.11,88.59,886.76,80.08,886.76,66.98z"/>
		<path d="M968.73,72.08h-48.9c1.67,10.87,9.39,16.51,19.69,16.51c7.34,0,14.16-3.41,17.5-9.56l9.78,3.93
			c-5.28,10.61-16.09,16.38-27.67,16.38c-17.12,0-30.89-12.97-30.89-32.36s13.77-31.96,30.89-31.96s29.86,12.58,29.86,31.96
			C968.99,68.68,968.86,70.38,968.73,72.08z M957.79,62.26c-1.42-10.48-8.75-16.51-18.66-16.51c-10.17,0-17.37,5.5-19.18,16.51
			H957.79z"/>
		<path d="M1030.51,36.58l-25.09,61.18h-10.94l-24.97-61.18h11.97l18.53,46.63l18.4-46.63H1030.51z"/>
		<path d="M1034.75,14.05c0-4.32,3.6-7.6,7.85-7.6c4.38,0,7.98,3.27,7.98,7.6s-3.6,7.6-7.98,7.6
			C1038.35,21.65,1034.75,18.38,1034.75,14.05z M1037.07,36.58h11.2v61.18h-11.2V36.58z"/>
		<path d="M1058.43,67.11c0-19.39,15.06-32.09,32.3-32.09c9.39,0,17.63,3.8,22.91,9.69l-7.08,7.47c-3.73-3.93-9.14-6.42-15.44-6.42
			c-11.84,0-21.36,8.78-21.36,21.35c0,12.58,9.52,21.48,21.36,21.48c6.31,0,11.71-2.49,15.44-6.42l7.08,7.47
			c-5.28,6.03-13.51,9.69-22.91,9.69C1073.49,99.33,1058.43,86.5,1058.43,67.11z"/>
		<path d="M1177.47,72.08h-48.9c1.67,10.87,9.39,16.51,19.69,16.51c7.34,0,14.16-3.41,17.5-9.56l9.78,3.93
			c-5.28,10.61-16.09,16.38-27.67,16.38c-17.12,0-30.89-12.97-30.89-32.36s13.77-31.96,30.89-31.96s29.86,12.58,29.86,31.96
			C1177.72,68.68,1177.59,70.38,1177.47,72.08z M1166.53,62.26c-1.42-10.48-8.75-16.51-18.66-16.51c-10.17,0-17.37,5.5-19.18,16.51
			H1166.53z"/>
		<path d="M1183,79.81h10.42c0.13,5.24,4.63,9.56,11.97,9.56c7.59,0,12.1-3.8,12.1-8.78c0-4.58-3.47-6.94-8.24-7.99l-8.24-1.96
			c-10.04-2.75-15.83-7.73-15.83-17.55c0-10.09,8.49-18.08,20.59-18.08c10.17,0,20.72,5.5,20.72,17.82h-10.81
			c-0.13-4.72-4.89-7.86-9.65-7.86c-5.79,0-9.65,3.8-9.65,8.51c0,4.19,3.86,6.42,7.72,7.34l8.88,2.23
			c12.48,3.14,15.7,10.74,15.7,17.68c0,11.4-10.81,18.6-23.29,18.6C1194.58,99.33,1183.51,92.39,1183,79.81z"/>
	</g>
</g>
<g id="Layer_3" class="st0">
	<g class="st1">
		<g>
			<path class="st2" d="M1.18,10.96l18.66-2.48l1.43,1.04v67.07c0,3,0.78,4.83,2.87,4.83c0.91,0,1.57-0.26,1.96-0.65l1.3,0.65
				l2.48,13.44L29.1,96.3c-2.87,1.69-6.52,2.74-10.7,2.74c-11.09,0-17.22-6.92-17.22-19.05C1.18,79.99,1.18,10.96,1.18,10.96z"/>
			<path class="st2" d="M34.45,12.52C34.45,5.61,39.93,0,46.85,0s12.53,5.61,12.53,12.52s-5.61,12.4-12.53,12.4
				S34.45,19.44,34.45,12.52z M56.89,97.46V32.23H36.8v65.24L56.89,97.46L56.89,97.46z"/>
			<path class="st2" d="M92.51,49.97l9.26,25.44l16.44-43.19h17.75l0.78,1.3l-26.62,63.94h-16.7L75.54,54.92
				c-2.09-5.35-4.31-6.65-6.39-6.65c-1.3-0.13-2.48,0.26-3.39,1.04l-1.3-0.65l-2.61-14.22L62.63,33c2.35-1.43,5.74-2.35,9.53-2.35
				C82.86,30.65,88.21,37.17,92.51,49.97L92.51,49.97z"/>
			<path class="st2" d="M155.01,69.81c1.17,9.79,9.26,14.35,18.4,14.35c6.91,0,13.83-2.48,18.14-7.18h1.44l9.13,8.74v1.44
				c-7.31,8.61-19.31,11.87-29.62,11.87c-19.57,0-37.06-11.74-37.06-34.06c0-19.96,14.09-34.32,35.1-34.32s34.58,14.09,34.58,33.79
				c0,1.96-0.13,3.65-0.39,5.35h-49.71L155.01,69.81z M154.88,59.37h30.93c-0.78-9.26-6.92-14.48-15.4-14.48
				S155.53,50.37,154.88,59.37L154.88,59.37z"/>
			<path class="st2" d="M213.07,10.96l18.66-2.48l1.43,1.04v67.07c0,3,0.78,4.83,2.87,4.83c0.91,0,1.57-0.26,1.96-0.65l1.3,0.65
				l2.48,13.44l-0.78,1.44c-2.87,1.69-6.52,2.74-10.7,2.74c-11.09,0-17.22-6.92-17.22-19.05V10.96z"/>
			<path class="st2" d="M317.32,33.53l-29.88,66.28c-6.13,13.7-15.27,17.22-24.27,17.22c-4.83,0-8.48-0.91-11.61-2.74l-0.78-1.44
				l3.91-12.27l1.17-0.65c1.43,0.78,2.87,1.44,5.35,1.44c3.52,0,7.05-1.44,9.13-5.74l1.83-3.65l-17.75-37.06
				c-2.61-5.48-4.44-6.65-6.39-6.65c-1.44-0.13-2.61,0.26-3.52,1.04l-1.17-0.65l-2.61-14.22l0.65-1.44
				c2.48-1.56,5.74-2.35,9.53-2.35c10.83,0,15.92,6.91,21.27,19.31l9.66,21.92l17.22-39.67h17.49l0.78,1.3L317.32,33.53z"/>
		</g>
		<path class="st2" d="M321.83,32.62h6.39v1.11h-2.57v7.52h-1.27v-7.52h-2.55L321.83,32.62L321.83,32.62z M338.14,41.25l-0.75-6.31
			l-2.63,5.39h-1.02l-2.61-5.37l-0.77,6.29h-1.32l1.09-8.63h1.11l3.03,6.33l3.01-6.33h1.11l1.07,8.63h-1.29L338.14,41.25z"/>
	</g>
	<g class="st1">
		<path class="st2" d="M352.14,66.82c0-19.39,14.29-32.09,31.4-32.09s31.53,12.71,31.53,32.09s-14.41,32.23-31.53,32.23
			S352.14,86.21,352.14,66.82z M403.87,66.82c0-12.58-9.27-21.35-20.33-21.35s-20.08,8.78-20.08,21.35s9.14,21.48,20.08,21.48
			S403.87,79.52,403.87,66.82z"/>
		<path class="st2" d="M480.83,62.1v35.37h-11.2V62.76c0-10.22-6.18-16.77-14.54-16.77s-18.4,5.11-18.4,18.34v33.14h-11.2V36.29
			h11.2v9.3c3.6-7.47,13.38-10.87,19.95-10.87C471.57,34.72,480.96,44.94,480.83,62.1z"/>
		<path class="st2" d="M568.08,74.28h-38.09l-8.62,23.19h-12.23l33.71-90.26h12.35l33.72,90.26h-12.23l-8.62-23.19H568.08z
			 M564.22,63.8l-15.19-40.87L533.84,63.8h30.37H564.22z"/>
		<path class="st2" d="M656.49,66.95c0,19.39-13.51,32.09-29.99,32.09c-9.01,0-17.5-3.93-21.49-11.13v39.3h-11.2V36.29h11.2v9.56
			c3.99-6.94,12.74-11.13,21.36-11.13c16.47,0,30.11,12.97,30.11,32.22L656.49,66.95z M645.16,67.08c0-12.18-8.75-21.61-19.82-21.61
			s-20.33,8.51-20.33,21.61s10.55,21.22,20.33,21.22C636.41,88.3,645.16,79.39,645.16,67.08z"/>
		<path class="st2" d="M729.58,66.95c0,19.39-13.51,32.09-29.99,32.09c-9.01,0-17.5-3.93-21.49-11.13v39.3h-11.2V36.29h11.2v9.56
			c3.99-6.94,12.74-11.13,21.36-11.13c16.47,0,30.11,12.97,30.11,32.22L729.58,66.95z M718.25,67.08c0-12.18-8.75-21.61-19.82-21.61
			s-20.33,8.51-20.33,21.61s10.55,21.22,20.33,21.22C709.5,88.3,718.25,79.39,718.25,67.08z"/>
		<path class="st2" d="M740,3.02h11.2v94.45H740V3.02z"/>
		<path class="st2" d="M821.85,71.79h-48.9c1.67,10.87,9.39,16.51,19.69,16.51c7.34,0,14.16-3.41,17.5-9.56l9.78,3.93
			c-5.28,10.61-16.09,16.38-27.67,16.38c-17.12,0-30.89-12.97-30.89-32.36s13.77-31.96,30.89-31.96s29.86,12.58,29.86,31.96
			c0,1.7-0.13,3.41-0.26,5.11V71.79z M810.91,61.97c-1.42-10.48-8.75-16.51-18.66-16.51s-17.37,5.5-19.18,16.51H810.91L810.91,61.97
			z"/>
		<path class="st2" d="M961.09,7.21L931.1,97.47h-10.17l-15.96-56.98l-15.83,56.98h-10.17L848.98,7.21h12.48l22.65,71.39
			l16.47-59.08h8.88l16.6,58.82l22.52-71.13h12.48L961.09,7.21z"/>
		<path class="st2" d="M1020.29,36.29v61.18h-11.2V86.6c-3.99,7.34-12.35,12.45-22.01,12.45c-15.7,0-29.47-13.49-29.47-32.23
			s13-32.09,29.99-32.09c9.01,0,17.5,3.93,21.49,11.13V36.3L1020.29,36.29L1020.29,36.29z M1009.09,66.81
			c0-12.58-10.42-21.35-20.59-21.35c-10.81,0-19.56,9.83-19.56,21.35s8.75,21.48,19.82,21.48S1009.09,79.25,1009.09,66.81z"/>
		<path class="st2" d="M1063.53,46.12h-13v51.35h-11.2V46.12h-10.81v-9.83h10.81V13.24h11.2v23.05h13
			C1063.53,36.29,1063.53,46.12,1063.53,46.12z"/>
		<path class="st2" d="M1065.59,66.82c0-19.39,15.06-32.09,32.3-32.09c9.39,0,17.63,3.8,22.91,9.69l-7.08,7.47
			c-3.73-3.93-9.14-6.42-15.44-6.42c-11.84,0-21.36,8.78-21.36,21.35s9.52,21.48,21.36,21.48c6.31,0,11.71-2.49,15.44-6.42
			l7.08,7.47c-5.28,6.03-13.51,9.69-22.91,9.69C1080.65,99.04,1065.59,86.2,1065.59,66.82L1065.59,66.82z"/>
		<path class="st2" d="M1185.14,62.1v35.37h-11.2V62.76c0-10.22-6.18-16.77-14.54-16.77S1141,51.1,1141,64.33v33.14h-11.2V3.02h11.2
			V45.6c3.6-7.47,13.38-10.87,19.95-10.87c14.93,0,24.32,10.22,24.19,27.38L1185.14,62.1z"/>
	</g>
</g>
<g id="LABELS">
</g>
</svg>
