<?xml version="1.0" encoding="utf-8"?>
<!-- Generator: Adobe Illustrator 26.2.1, SVG Export Plug-In . SVG Version: 6.00 Build 0)  -->
<svg version="1.1" xmlns="http://www.w3.org/2000/svg" xmlns:xlink="http://www.w3.org/1999/xlink" x="0px" y="0px"
	 viewBox="0 0 783.3 127.2" style="enable-background:new 0 0 783.3 127.2;" xml:space="preserve">
<style type="text/css">
	.st0{display:none;}
	.st1{display:inline;}
</style>
<g id="Layer_1" class="st0">
	<g id="LOGOS" class="st1">
		<path d="M0,11l18.7-2.4l1.4,1v67.1c0,3,0.8,4.8,2.9,4.8c0.7,0.1,1.4-0.2,1.9-0.6l1.3,0.6l2.5,13.4l-0.8,1.4
			c-3.3,1.8-7,2.8-10.7,2.7C6.1,99,0,92.1,0,80V11z"/>
		<path d="M33.3,12.5C33.2,5.6,38.8,0,45.7,0s12.5,5.5,12.5,12.4s-5.5,12.5-12.4,12.5h-0.1C38.8,24.9,33.3,19.4,33.3,12.5z
			 M55.7,97.5V32.2H35.6v65.3H55.7z"/>
		<path d="M91.3,50l9.3,25.4L117,32.2h17.7l0.8,1.3l-26.6,64H92.2L74.4,55c-2.1-5.4-4.3-6.6-6.4-6.6c-1.2-0.2-2.5,0.2-3.4,1
			l-1.3-0.6l-2.6-14.2l0.8-1.4c2.9-1.6,6.2-2.4,9.5-2.4C81.7,30.7,87,37.2,91.3,50z"/>
		<path d="M153.9,69.8c1.2,9.8,9.3,14.4,18.4,14.4c6.9,0,13.8-2.5,18.1-7.2h1.5l9.1,8.7v1.4c-7.3,8.6-19.3,11.9-29.6,11.9
			c-19.6,0-37.1-11.7-37.1-34c0-20,14.1-34.3,35.1-34.3c20.8,0,34.6,14.1,34.6,33.8c0,1.8-0.1,3.6-0.4,5.4L153.9,69.8z M153.7,59.4
			h30.9c-0.8-9.3-6.9-14.5-15.4-14.5S154.4,50.4,153.7,59.4L153.7,59.4z"/>
		<path d="M211.9,11l18.7-2.4l1.4,1v67.1c0,3,0.8,4.8,2.9,4.8c0.7,0.1,1.4-0.2,2-0.6l1.3,0.6l2.5,13.4l-0.8,1.4
			c-3.3,1.8-7,2.8-10.7,2.7c-11.1,0-17.2-6.9-17.2-19L211.9,11z"/>
		<path d="M316.1,33.5l-29.9,66.3C280.1,113.5,271,117,262,117c-4.8,0-8.5-0.9-11.6-2.7l-0.8-1.4l3.9-12.3l1.2-0.6
			c1.6,1,3.5,1.5,5.4,1.4c3.9,0.1,7.6-2.1,9.1-5.7L271,92l-17.7-37.1c-2.6-5.5-4.4-6.6-6.4-6.6c-1.3-0.2-2.5,0.2-3.5,1l-1.2-0.6
			l-2.6-14.2l0.6-1.4c2.9-1.7,6.2-2.5,9.5-2.4c10.8,0,15.9,6.9,21.3,19.3l9.7,21.9l17.2-39.6h17.5L316.1,33.5z"/>
		<path d="M320.6,32.6h6.4v1.1h-2.6v7.5h-1.3v-7.5h-2.6v-1.1H320.6z M337,41.2l-0.8-6.3l-2.6,5.4h-1l-2.6-5.4l-0.8,6.3h-1.3l1.1-8.6
			h1.1l3,6.3l3-6.3h1.1l1.1,8.6C338.3,41.2,337,41.2,337,41.2z"/>
		<path d="M350.9,66.8c0-19.4,14.3-32.1,31.4-32.1s31.6,12.7,31.6,32.1S399.4,99,382.3,99S350.9,86.2,350.9,66.8z M402.6,66.8
			c0-12.6-9.3-21.4-20.3-21.4s-20.1,8.8-20.1,21.4s9.1,21.5,20.1,21.5S402.6,79.5,402.6,66.8L402.6,66.8z"/>
		<path d="M479.6,62.1v35.4h-11.2V62.7c0-10.2-6.2-16.8-14.5-16.8s-18.4,5.1-18.4,18.3v33.2h-11.2V36.3h11.2v9.3
			c3.6-7.5,13.4-10.9,20-10.9C470.3,34.7,479.7,44.9,479.6,62.1z"/>
		<path d="M579.2,36.3v61.2H568V86.6c-4,7.3-12.4,12.4-22,12.4c-15.7,0-29.5-13.5-29.5-32.2c0-18.1,13-32.1,30-32.1
			c9,0,17.5,3.9,21.5,11.1v-9.6L579.2,36.3z M568,66.8c0-12.6-10.4-21.4-20.6-21.4c-10.8,0-19.6,9.8-19.6,21.4s8.8,21.5,19.8,21.5
			C558.3,88.3,568,79.3,568,66.8z"/>
		<path d="M656.3,66.9c0,19.4-13.5,32.1-30,32.1c-9,0-17.5-3.9-21.5-11.1v39.3h-11.2V36.3h11.2v9.6c4-7,12.7-11.1,21.4-11.1
			C642.6,34.7,656.3,47.7,656.3,66.9z M644.9,67.1c0-12.2-8.8-21.6-19.8-21.6c-10.7,0-20.3,8.5-20.3,21.6
			c-0.3,11.4,8.8,20.9,20.2,21.2h0.1C636.2,88.3,644.9,79.4,644.9,67.1L644.9,67.1z"/>
		<path d="M729.4,66.9c0,19.4-13.5,32.1-30,32.1c-9,0-17.5-3.9-21.5-11.1v39.3h-11.2V36.3h11.2v9.6c4-7,12.7-11.1,21.4-11.1
			C715.7,34.7,729.4,47.7,729.4,66.9z M718,67.1c0-12.2-8.8-21.6-19.8-21.6c-10.7,0-20.3,8.5-20.3,21.6c-0.3,11.5,8.8,21,20.3,21.2
			h0.1C709.3,88.3,718,79.4,718,67.1z"/>
		<path d="M739.8,3H751v94.5h-11.2V3z"/>
		<path d="M821.6,71.8h-48.9c1.7,10.9,9.4,16.5,19.7,16.5c7.3,0,14.2-3.4,17.5-9.6l9.8,3.9C814.4,93.3,803.6,99,792,99
			c-17.1,0-30.9-13-30.9-32.4s13.8-32,30.9-32s29.8,12.6,29.8,32C821.8,68.4,821.8,70.1,821.6,71.8z M810.7,62
			c-1.4-10.5-8.8-16.5-18.7-16.5c-10.2,0-17.4,5.5-19.2,16.5H810.7z"/>
		<path d="M947.8,36.3l-22.4,61.2H916L899.4,52l-16,45.5h-9.3l-22.9-61.2h12.1l15.3,43.5l15.3-43.5H905l15.4,43.5l15.3-43.5
			C935.7,36.3,947.8,36.3,947.8,36.3z"/>
		<path d="M1012.1,36.3v61.2h-11.2V86.6c-4,7.3-12.3,12.4-22,12.4c-15.7,0-29.5-13.5-29.5-32.2c0-18.1,13-32.1,30-32.1
			c9,0,17.5,3.9,21.5,11.1v-9.6L1012.1,36.3z M1000.8,66.8c0-12.6-10.4-21.4-20.6-21.4c-10.8,0-19.6,9.8-19.6,21.4
			s8.8,21.5,19.8,21.5C991.2,88.3,1000.8,79.3,1000.8,66.8z"/>
		<path d="M1055.3,46.1h-13v51.4h-11.2V46.1h-10.8v-9.8h10.8V13.2h11.2v23.1h13V46.1z"/>
		<path d="M1057.4,66.8c0-19.4,15.1-32.1,32.3-32.1c8.7-0.2,17,3.4,22.9,9.7l-7.1,7.5c-4-4.2-9.6-6.5-15.4-6.4
			c-11.8,0-21.4,8.8-21.4,21.4c0,11.9,9.6,21.5,21.5,21.5c5.8,0,11.3-2.3,15.3-6.4l7.1,7.5c-5.3,6-13.5,9.7-22.9,9.7
			C1072.4,99,1057.4,86.2,1057.4,66.8z"/>
		<path d="M1176.9,62.1v35.4h-11.2V62.7c0-10.2-6.2-16.8-14.5-16.8s-18.4,5.1-18.4,18.3v33.2h-11.2V3h11.2v42.6
			c3.6-7.5,13.4-10.9,20-10.9C1167.7,34.7,1177.1,44.9,1176.9,62.1z"/>
	</g>
	<g id="Layer_2_00000065073937283118499450000008705585341919720844_">
		<path class="st1" d="M0.3,11L19,8.6l1.4,1v67.1c0,3,0.8,4.8,2.9,4.8c0.7,0.1,1.4-0.2,1.9-0.6l1.3,0.6L29,94.9l-0.8,1.4
			c-3.3,1.8-7,2.8-10.7,2.7C6.4,99,0.3,92.1,0.3,80V11z"/>
		<path class="st1" d="M33.6,12.5C33.5,5.7,39.1,0,46,0s12.5,5.5,12.5,12.4S53,24.9,46.1,24.9H46C39.1,24.9,33.6,19.4,33.6,12.5z
			 M56,97.5V32.2H35.9v65.3H56z"/>
		<path class="st1" d="M91.6,50l9.3,25.4l16.4-43.2H135l0.8,1.3l-26.6,64H92.5L74.7,55c-2.1-5.4-4.3-6.6-6.4-6.6
			c-1.2-0.2-2.5,0.2-3.4,1l-1.3-0.6L61,34.5l0.8-1.4c2.9-1.6,6.2-2.4,9.5-2.4C82,30.7,87.3,37.2,91.6,50z"/>
		<path class="st1" d="M154.1,69.8c1.2,9.8,9.3,14.4,18.4,14.4c6.9,0,13.8-2.5,18.1-7.2h1.5l9.1,8.7v1.4C194,95.8,182,99,171.6,99
			c-19.6,0-37.1-11.7-37.1-34c0-20,14.1-34.3,35.1-34.3c20.8,0,34.6,14.1,34.6,33.8c0,1.8-0.1,3.6-0.4,5.4L154.1,69.8z M154,59.4
			h30.9c-0.8-9.3-6.9-14.5-15.4-14.5S154.6,50.4,154,59.4L154,59.4z"/>
		<path class="st1" d="M212.1,11l18.7-2.4l1.4,1v67.1c0,3,0.8,4.8,2.9,4.8c0.7,0.1,1.4-0.2,2-0.6l1.3,0.6l2.5,13.4l-0.8,1.4
			c-3.3,1.8-7,2.8-10.7,2.7c-11.1,0-17.2-6.9-17.2-19L212.1,11z"/>
		<path class="st1" d="M316.4,33.5l-29.9,66.3c-6.1,13.7-15.3,17.2-24.3,17.2c-4.8,0-8.5-0.9-11.6-2.7l-0.8-1.4l3.9-12.3l1.2-0.6
			c1.6,1,3.5,1.5,5.4,1.4c3.9,0.1,7.6-2.1,9.1-5.7l1.8-3.6L253.5,55c-2.6-5.5-4.4-6.6-6.4-6.6c-1.3-0.2-2.5,0.2-3.5,1l-1.2-0.6
			l-2.6-14.2l0.6-1.4c2.9-1.7,6.2-2.5,9.5-2.4c10.8,0,15.9,6.9,21.3,19.3l9.7,21.9l17.2-39.6h17.5L316.4,33.5z"/>
		<path class="st1" d="M320.9,32.6h6.4v1.1h-2.6v7.5h-1.3v-7.5h-2.5V32.6z M337.2,41.3l-0.8-6.3l-2.6,5.4h-1l-2.6-5.4l-0.8,6.3h-1.3
			l1.1-8.6h1.1l3,6.3l3-6.3h1.1l1.1,8.6C338.5,41.3,337.2,41.3,337.2,41.3z"/>
		<path class="st1" d="M351.1,66.8c0-19.4,14.3-32.1,31.4-32.1S414,47.4,414,66.8S399.6,99,382.5,99S351.1,86.2,351.1,66.8z
			 M402.9,66.8c0-12.6-9.3-21.4-20.3-21.4s-20.1,8.8-20.1,21.4s9.1,21.5,20.1,21.5C393.5,88.3,402.8,79.5,402.9,66.8L402.9,66.8z"/>
		<path class="st1" d="M479.8,62.1v35.4h-11.2V62.8c0-10.2-6.2-16.8-14.5-16.8c-8.4,0-18.4,5.1-18.4,18.3v33.2h-11.2V36.3h11.2v9.3
			c3.6-7.5,13.4-10.9,20-10.9C470.5,34.7,479.9,45,479.8,62.1z"/>
		<path class="st1" d="M579.4,36.3v61.2h-11.2V86.6c-4,7.3-12.3,12.4-22,12.4c-15.7,0-29.5-13.5-29.5-32.2c0-18.1,13-32.1,30-32.1
			c9,0,17.5,3.9,21.5,11.1v-9.6L579.4,36.3z M568.2,66.8c0-12.6-10.4-21.4-20.6-21.4c-10.8,0-19.6,9.8-19.6,21.4s8.8,21.5,19.8,21.5
			C558.5,88.3,568.2,79.3,568.2,66.8L568.2,66.8z"/>
		<path class="st1" d="M593.8,3H605v94.5h-11.2V3z"/>
		<path class="st1" d="M675.6,71.8h-48.9c1.7,10.9,9.4,16.5,19.7,16.5c7.3,0,14.2-3.4,17.5-9.6l9.8,3.9C668.4,93.2,657.6,99,646,99
			c-17.1,0-30.9-13-30.9-32.4s13.8-32,30.9-32s29.8,12.6,29.8,32C675.9,68.4,675.8,70.1,675.6,71.8z M664.7,62
			c-1.4-10.5-8.8-16.5-18.7-16.5c-10.2,0-17.4,5.5-19.2,16.5H664.7z"/>
		<path class="st1" d="M722.6,97.5l-17-24l-17.1,24h-13.4l23.8-33.7l-19.4-27.5H693l12.6,18.2l12.6-18.2h13.6L712.3,64L736,97.5
			H722.6z"/>
		<path class="st1" d="M797.9,36.3v61.2h-11.2V86.6c-4,7.3-12.4,12.4-22,12.4c-15.7,0-29.5-13.5-29.5-32.2c0-18.1,13-32.1,30-32.1
			c9,0,17.5,3.9,21.5,11.1v-9.6L797.9,36.3z M786.7,66.8c0-12.6-10.4-21.4-20.6-21.4c-10.8,0-19.6,9.8-19.6,21.4s8.8,21.5,19.8,21.5
			C777,88.3,786.7,79.3,786.7,66.8L786.7,66.8z"/>
		<path class="st1" d="M898.4,3v94.5h-11.2V88c-4,6.9-12.7,11.1-21.4,11.1c-16.5,0-30.1-13-30.1-32.2s13.5-32.1,30-32.1
			c9,0,17.5,3.9,21.5,11.1V3H898.4z M887.2,66.7c0.3-11.5-8.8-21-20.3-21.2c-0.1,0-0.1,0-0.2,0c-10.9,0-19.7,8.9-19.7,21.2
			s8.8,21.6,19.7,21.6S887.2,79.8,887.2,66.7z"/>
		<path class="st1" d="M969.1,71.8h-48.9c1.7,10.9,9.4,16.5,19.7,16.5c7.3,0,14.2-3.4,17.5-9.6l9.8,3.9
			C961.9,93.2,951.1,99,939.5,99c-17.1,0-30.9-13-30.9-32.4s13.8-32,30.9-32s29.9,12.6,29.9,32C969.4,68.4,969.3,70.1,969.1,71.8z
			 M958.2,62c-1.4-10.5-8.8-16.5-18.7-16.5c-10.2,0-17.4,5.5-19.2,16.5H958.2z"/>
		<path class="st1" d="M1031.6,36.3l-25.1,61.2h-10.9l-25-61.2h12l18.6,46.6l18.4-46.6C1019.6,36.3,1031.6,36.3,1031.6,36.3z"/>
		<path class="st1" d="M1036.5,13.8c-0.2-4.4,3.2-8.1,7.6-8.2c4.4-0.2,8.1,3.2,8.2,7.6s-3.2,8.1-7.6,8.2c-0.1,0-0.2,0-0.4,0
			C1040.1,21.5,1036.6,18.1,1036.5,13.8L1036.5,13.8z M1038.8,36.3h11.2v61.2h-11.2V36.3z"/>
		<path class="st1" d="M1060.8,66.8c0-19.4,15-32.1,32.3-32.1c8.7-0.2,17,3.4,22.9,9.7l-7.1,7.5c-4-4.2-9.6-6.5-15.4-6.4
			c-11.8,0-21.4,8.8-21.4,21.4s9.5,21.5,21.4,21.5c5.8,0.1,11.4-2.2,15.4-6.4l7.1,7.5c-5.3,6-13.5,9.7-22.9,9.7
			C1075.9,99.1,1060.8,86.2,1060.8,66.8z"/>
		<path class="st1" d="M1180.5,71.8h-48.9c1.7,10.9,9.4,16.5,19.7,16.5c7.3,0,14.2-3.4,17.5-9.6l9.8,3.9
			c-5.3,10.6-16.1,16.4-27.7,16.4c-17.1,0-30.9-13-30.9-32.4s13.8-32,30.9-32s29.8,12.6,29.8,32
			C1180.7,68.4,1180.6,70.1,1180.5,71.8z M1169.5,62c-1.4-10.5-8.8-16.5-18.7-16.5c-10.2,0-17.4,5.5-19.2,16.5H1169.5z"/>
		<path class="st1" d="M1186.7,79.5h10.5c0.1,5.2,4.6,9.6,12,9.6c7.6,0,12.1-3.8,12.1-8.8c0-4.6-3.5-6.9-8.2-8l-8.2-2
			c-10-2.8-15.8-7.7-15.8-17.6c0-10.1,8.5-18.1,20.6-18.1c10.2,0,20.7,5.5,20.7,17.8h-10.8c-0.1-4.7-4.9-7.9-9.7-7.9
			c-5.8,0-9.7,3.8-9.7,8.5c0,4.2,3.9,6.4,7.7,7.3l8.9,2.2c12.5,3.1,15.7,10.8,15.7,17.7c0,11.4-10.8,18.6-23.3,18.6
			C1198.2,99.1,1187.1,92.1,1186.7,79.5z"/>
	</g>
</g>
<g id="Layer_2">
	<g id="labels">
		<path d="M454.8,62.2v35.2h-11.4V62.9c0-10.2-5.6-17-14.5-17c-10.8-0.1-17.4,9.3-16.3,21l-0.1-0.5v31.1h-11.4V62.9
			c0-10.3-5.6-17-13.7-17c-8.6,0-17.2,5.6-17.2,18.5v33h-11.3V36.5h11.4v9.3c3.1-6.5,11-10.8,19.6-10.8c8.9,0,16.6,4.7,20.1,12.9
			c5.5-11,15.1-12.9,21.3-12.9C446.4,34.9,454.8,45.1,454.8,62.2z"/>
		<path d="M463.7,66.9c0-19.3,14.5-32,31.8-32s32,12.7,32,32S513,99,495.6,99S463.7,86.2,463.7,66.9z M516.2,66.9
			c0-12.5-9.4-21.3-20.6-21.3s-20.4,8.8-20.4,21.3s9.3,21.4,20.4,21.4S516.2,79.6,516.2,66.9z"/>
		<path d="M601.1,66.9c0,19.2-13.8,32.1-30.5,32.1c-8.7,0-17.6-4.2-21.7-11.1v9.5h-11.3V3.4h11.3V46c4-7.2,12.7-11.1,21.8-11.1
			C587.4,34.9,601.1,47.6,601.1,66.9z M589.7,66.8c0-12.3-8.9-21.1-20.1-21.1c-11.5,0.1-20.7,9.5-20.6,21.1c0,0,0,0.1,0,0.1
			c0,13.1,9.8,21.5,20.6,21.5C580.8,88.3,589.7,78.9,589.7,66.8L589.7,66.8z"/>
		<path d="M608.7,14.1c0.1-4.3,3.6-7.7,7.9-7.6c0,0,0.1,0,0.1,0c4.4,0,8.1,3.3,8.1,7.6c0,4.4-3.6,8-8,8S608.8,18.5,608.7,14.1
			L608.7,14.1z M611,36.5h11.4v60.9H611V36.5z"/>
		<path d="M636.4,3.4h11.4v94.1h-11.4V3.4z"/>
		<path d="M718.8,71.9h-49.6c1.7,10.8,9.5,16.4,20,16.4c7.4,0,14.3-3.4,17.7-9.5l9.9,3.9C711.5,93.3,700.5,99,688.8,99
			c-17.4,0-31.3-12.9-31.3-32.2s14-31.9,31.3-31.9s30.3,12.5,30.3,31.8C719.1,68.5,719,70.2,718.8,71.9z M707.7,62.1
			c-1.4-10.4-8.9-16.4-18.9-16.4c-10.3,0-17.6,5.5-19.4,16.4H707.7z"/>
		<path d="M780.4,68.9h-21.1v21.4h-11.1V68.9h-21.3V57.8h21.3V36.6h11.1v21.1h21.1L780.4,68.9z"/>
		<path d="M-0.4,10.9l18.7-2.5l1.4,1v67.1c0,3,0.8,4.8,2.9,4.8c0.7,0.1,1.4-0.2,2-0.6l1.3,0.6l2.5,13.4l-0.8,1.5
			c-3.3,1.9-7,2.8-10.7,2.7C5.7,99-0.4,92.1-0.4,80L-0.4,10.9z"/>
		<path d="M32.9,12.5C32.9,5.6,38.4,0,45.3,0c6.9,0,12.5,5.5,12.5,12.4c0,6.9-5.5,12.5-12.4,12.5c0,0-0.1,0-0.1,0
			C38.4,24.9,32.9,19.4,32.9,12.5z M55.3,97.4V32.2H35.2v65.2L55.3,97.4z"/>
		<path d="M90.9,49.9l9.3,25.4l16.4-43.2h17.8l0.8,1.3l-26.7,64H91.8L74,54.9c-2.1-5.4-4.3-6.6-6.4-6.6c-1.2-0.2-2.4,0.2-3.4,1
			l-1.3-0.6l-2.6-14.2l0.8-1.4c2.9-1.6,6.2-2.4,9.5-2.4C81.3,30.6,86.6,37.2,90.9,49.9z"/>
		<path d="M153.4,69.8c1.2,9.8,9.3,14.4,18.4,14.4c6.9,0,13.8-2.5,18.1-7.2h1.4l9.1,8.7v1.4c-7.3,8.6-19.3,11.9-29.6,11.9
			c-19.6,0-37.1-11.8-37.1-34.1c0-20,14.1-34.3,35.1-34.3c20.8,0,34.6,14.1,34.6,33.8c0,1.8-0.1,3.6-0.4,5.4L153.4,69.8z
			 M153.3,59.3h30.9c-0.8-9.3-6.9-14.5-15.4-14.5C160.4,44.9,154,50.3,153.3,59.3z"/>
		<path d="M211.5,10.9l18.7-2.5l1.4,1v67.1c0,3,0.8,4.8,2.9,4.8c0.7,0.1,1.4-0.2,2-0.6l1.3,0.6l2.5,13.4l-0.8,1.4
			c-3.3,1.8-7,2.8-10.7,2.7c-11.1,0-17.2-6.9-17.2-19.1L211.5,10.9z"/>
		<path d="M315.8,33.5l-29.9,66.3c-6.1,13.7-15.3,17.2-24.3,17.2c-4.8,0-8.5-0.9-11.6-2.7l-0.8-1.4l3.9-12.3l1.2-0.6
			c1.6,1,3.5,1.5,5.4,1.4c3.9,0.1,7.6-2.1,9.1-5.7l1.8-3.7l-17.8-37c-2.6-5.5-4.4-6.6-6.4-6.6c-1.3-0.2-2.5,0.2-3.5,1l-1.2-0.6
			l-2.6-14.2l0.6-1.4c2.9-1.7,6.2-2.5,9.5-2.4c10.8,0,15.9,6.9,21.3,19.3l9.6,22l17.3-39.7H315L315.8,33.5z"/>
		<path d="M335.3,39.3c0,4-3.2,7.2-7.1,7.2s-7.2-3.2-7.2-7.1c0-4,3.2-7.2,7.1-7.2c0,0,0,0,0,0c3.9-0.1,7.1,3,7.2,6.8
			C335.3,39.1,335.3,39.2,335.3,39.3z M322.3,39.3c0.1,3.3,2.7,5.8,6,5.8c3.3-0.1,5.8-2.7,5.8-6c-0.1-3.2-2.7-5.8-5.9-5.8
			c-3.2-0.1-5.9,2.5-5.9,5.7C322.2,39.1,322.2,39.2,322.3,39.3L322.3,39.3z M327.8,39.8h-1.4v3.6h-1.2v-8.6h3.1c2,0,3,0.9,3,2.6
			c0.1,1.2-0.8,2.2-1.9,2.4c-0.1,0-0.1,0-0.2,0l2.1,3.7h-1.5L327.8,39.8z M330.1,37.3c0-0.7-0.5-1.4-1.3-1.4c-0.1,0-0.2,0-0.3,0
			h-2.1v2.8h2.1c0.7,0.1,1.4-0.4,1.5-1.2C330,37.5,330,37.4,330.1,37.3L330.1,37.3z"/>
	</g>
</g>
</svg>
