<?xml version="1.0" encoding="utf-8"?>
<!-- Generator: Adobe Illustrator 26.3.1, SVG Export Plug-In . SVG Version: 6.00 Build 0)  -->
<svg version="1.1" xmlns="http://www.w3.org/2000/svg" xmlns:xlink="http://www.w3.org/1999/xlink" x="0px" y="0px"
	 viewBox="0 0 877.01 250.75" style="enable-background:new 0 0 877.01 250.75;" xml:space="preserve">
<style type="text/css">
	.st0{display:none;}
	.st1{display:inline;}
	.st2{fill:#010101;}
</style>
<g id="LOGOS">
	<g>
		<path d="M2.46,10.96l18.66-2.48l1.43,1.05v67.08c0,3,0.78,4.83,2.87,4.83c0.91,0,1.57-0.26,1.96-0.65l1.3,0.65l2.48,13.44
			l-0.78,1.43c-2.87,1.7-6.52,2.74-10.7,2.74C8.6,99.05,2.46,92.14,2.46,80V10.96z"/>
		<path d="M35.74,12.53C35.74,5.61,41.22,0,48.14,0s12.53,5.61,12.53,12.53s-5.61,12.4-12.53,12.4S35.74,19.44,35.74,12.53z
			 M58.19,97.49V32.23h-20.1v65.25H58.19z"/>
		<path d="M93.81,49.98l9.27,25.45l16.44-43.2h17.75l0.78,1.3l-26.62,63.95h-16.7L76.85,54.94c-2.09-5.35-4.31-6.66-6.39-6.66
			c-1.3-0.13-2.48,0.26-3.39,1.05l-1.3-0.65l-2.61-14.22l0.78-1.44c2.35-1.44,5.74-2.35,9.53-2.35
			C84.15,30.67,89.51,37.19,93.81,49.98z"/>
		<path d="M156.32,69.82c1.18,9.79,9.26,14.35,18.4,14.35c6.92,0,13.83-2.48,18.14-7.18h1.44l9.13,8.74v1.44
			c-7.31,8.61-19.31,11.87-29.62,11.87c-19.58,0-37.06-11.74-37.06-34.06c0-19.97,14.09-34.32,35.11-34.32
			c20.75,0,34.58,14.09,34.58,33.8c0,1.96-0.13,3.66-0.39,5.35H156.32z M156.19,59.38h30.93c-0.78-9.27-6.92-14.49-15.4-14.49
			C163.11,44.89,156.84,50.38,156.19,59.38z"/>
		<path d="M214.39,10.96l18.66-2.48l1.43,1.05v67.08c0,3,0.78,4.83,2.87,4.83c0.91,0,1.57-0.26,1.96-0.65l1.3,0.65l2.48,13.44
			l-0.78,1.43c-2.87,1.7-6.52,2.74-10.7,2.74c-11.09,0-17.23-6.92-17.23-19.05V10.96z"/>
		<path d="M318.66,33.54l-29.89,66.3c-6.13,13.7-15.27,17.23-24.27,17.23c-4.83,0-8.48-0.91-11.61-2.74l-0.78-1.43l3.91-12.27
			l1.18-0.65c1.43,0.78,2.87,1.44,5.35,1.44c3.52,0,7.05-1.44,9.13-5.74l1.83-3.65l-17.75-37.06c-2.61-5.48-4.44-6.66-6.39-6.66
			c-1.44-0.13-2.61,0.26-3.52,1.05l-1.18-0.65l-2.61-14.22l0.65-1.44c2.48-1.57,5.74-2.35,9.53-2.35c10.83,0,15.92,6.92,21.27,19.31
			l9.66,21.92l17.23-39.67h17.49L318.66,33.54z"/>
	</g>
	<g>
		<path d="M323.17,32.62h6.39v1.11H327v7.52h-1.27v-7.52h-2.55V32.62z M339.49,41.25l-0.75-6.31l-2.63,5.39h-1.02l-2.61-5.37
			l-0.77,6.29h-1.32l1.09-8.63h1.11l3.03,6.33l3.01-6.33h1.11l1.07,8.63H339.49z"/>
	</g>
	<g>
		<path d="M0,190.34c0-19.39,14.29-32.09,31.4-32.09s31.53,12.71,31.53,32.09s-14.41,32.23-31.53,32.23S0,209.72,0,190.34z
			 M51.73,190.34c0-12.58-9.27-21.35-20.33-21.35c-10.94,0-20.08,8.78-20.08,21.35c0,12.71,9.14,21.48,20.08,21.48
			C42.47,211.82,51.73,203.04,51.73,190.34z"/>
		<path d="M128.69,185.62v35.37h-11.2v-34.71c0-10.22-6.18-16.77-14.54-16.77s-18.4,5.11-18.4,18.34v33.14h-11.2v-61.18h11.2v9.3
			c3.6-7.47,13.38-10.87,19.95-10.87C119.42,158.24,128.82,168.46,128.69,185.62z"/>
		<path d="M215.94,197.8h-38.09l-8.62,23.19H157l33.72-90.26h12.35l33.72,90.26h-12.23L215.94,197.8z M212.08,187.32l-15.19-40.87
			l-15.19,40.87H212.08z"/>
		<path d="M241.68,126.54h11.2v94.45h-11.2V126.54z"/>
		<path d="M323.52,195.31h-48.9c1.67,10.87,9.39,16.51,19.69,16.51c7.34,0,14.16-3.41,17.5-9.56l9.78,3.93
			c-5.28,10.61-16.09,16.38-27.67,16.38c-17.12,0-30.89-12.97-30.89-32.36s13.77-31.96,30.89-31.96s29.86,12.58,29.86,31.96
			C323.78,191.91,323.65,193.61,323.52,195.31z M312.58,185.49c-1.42-10.48-8.75-16.51-18.66-16.51c-10.17,0-17.37,5.5-19.18,16.51
			H312.58z"/>
		<path d="M370.5,220.99l-16.99-23.97l-17.12,23.97h-13.38l23.81-33.67l-19.43-27.51h13.51l12.61,18.21l12.61-18.21h13.64
			l-19.56,27.64l23.68,33.54H370.5z"/>
		<path d="M445.78,159.81v61.18h-11.2v-10.87c-3.99,7.34-12.35,12.45-22.01,12.45c-15.7,0-29.47-13.49-29.47-32.23
			c0-18.08,13-32.09,29.99-32.09c9.01,0,17.5,3.93,21.49,11.13v-9.56H445.78z M434.58,190.34c0-12.58-10.42-21.35-20.59-21.35
			c-10.81,0-19.56,9.83-19.56,21.35c0,11.66,8.75,21.48,19.82,21.48C424.93,211.82,434.58,202.78,434.58,190.34z"/>
		<path d="M546.28,126.54v94.45h-11.2v-9.56c-3.99,6.94-12.74,11.13-21.36,11.13c-16.47,0-30.11-12.97-30.11-32.23
			c0-19.39,13.51-32.09,29.99-32.09c9.01,0,17.5,3.93,21.49,11.13v-42.84H546.28z M535.09,190.21c0-13.23-10.55-21.22-20.46-21.22
			c-10.94,0-19.69,8.91-19.69,21.22c0,12.18,8.75,21.61,19.69,21.61C525.43,211.82,535.09,203.31,535.09,190.21z"/>
		<path d="M617.06,195.31h-48.9c1.67,10.87,9.39,16.51,19.69,16.51c7.34,0,14.16-3.41,17.5-9.56l9.78,3.93
			c-5.28,10.61-16.09,16.38-27.67,16.38c-17.12,0-30.89-12.97-30.89-32.36s13.77-31.96,30.89-31.96s29.86,12.58,29.86,31.96
			C617.32,191.91,617.19,193.61,617.06,195.31z M606.12,185.49c-1.42-10.48-8.75-16.51-18.66-16.51c-10.17,0-17.37,5.5-19.18,16.51
			H606.12z"/>
		<path d="M678.83,159.81l-25.09,61.18H642.8l-24.97-61.18h11.97l18.53,46.63l18.4-46.63H678.83z"/>
		<path d="M683.08,137.28c0-4.32,3.6-7.6,7.85-7.6c4.38,0,7.98,3.27,7.98,7.6s-3.6,7.6-7.98,7.6
			C686.68,144.88,683.08,141.61,683.08,137.28z M685.39,159.81h11.2v61.18h-11.2V159.81z"/>
		<path d="M706.75,190.34c0-19.39,15.06-32.09,32.3-32.09c9.39,0,17.63,3.8,22.91,9.69l-7.08,7.47c-3.73-3.93-9.14-6.42-15.44-6.42
			c-11.84,0-21.36,8.78-21.36,21.35c0,12.58,9.52,21.48,21.36,21.48c6.31,0,11.71-2.49,15.44-6.42l7.08,7.47
			c-5.28,6.03-13.51,9.69-22.91,9.69C721.81,222.56,706.75,209.72,706.75,190.34z"/>
		<path d="M825.79,195.31h-48.9c1.67,10.87,9.39,16.51,19.69,16.51c7.34,0,14.16-3.41,17.5-9.56l9.78,3.93
			c-5.28,10.61-16.09,16.38-27.67,16.38c-17.12,0-30.89-12.97-30.89-32.36s13.77-31.96,30.89-31.96s29.86,12.58,29.86,31.96
			C826.05,191.91,825.92,193.61,825.79,195.31z M814.85,185.49c-1.42-10.48-8.75-16.51-18.66-16.51c-10.17,0-17.37,5.5-19.18,16.51
			H814.85z"/>
		<path d="M831.32,203.04h10.42c0.13,5.24,4.63,9.56,11.97,9.56c7.59,0,12.1-3.8,12.1-8.78c0-4.58-3.47-6.94-8.24-7.99l-8.24-1.96
			c-10.04-2.75-15.83-7.73-15.83-17.55c0-10.09,8.49-18.08,20.59-18.08c10.17,0,20.72,5.5,20.72,17.82h-10.81
			c-0.13-4.72-4.89-7.86-9.65-7.86c-5.79,0-9.65,3.8-9.65,8.51c0,4.19,3.86,6.42,7.72,7.34l8.88,2.23
			c12.48,3.14,15.7,10.74,15.7,17.68c0,11.4-10.81,18.6-23.29,18.6C842.91,222.56,831.84,215.62,831.32,203.04z"/>
	</g>
</g>
<g id="LABELS">
</g>
<g id="Layer_3" class="st0">
	<g class="st1">
		<g>
			<path class="st2" d="M2.75,10.98L21.41,8.5l1.43,1.05v67.08c0,3,0.78,4.83,2.87,4.83c0.91,0,1.57-0.26,1.96-0.65l1.3,0.65
				l2.48,13.44l-0.78,1.43c-2.87,1.7-6.52,2.74-10.7,2.74c-11.09,0-17.23-6.92-17.23-19.05V10.98H2.75z"/>
			<path class="st2" d="M36.03,12.55c0-6.92,5.48-12.53,12.4-12.53s12.53,5.61,12.53,12.53s-5.61,12.4-12.53,12.4
				S36.03,19.47,36.03,12.55z M58.48,97.51V32.25h-20.1v65.26H58.48z"/>
			<path class="st2" d="M94.1,50l9.27,25.45l16.44-43.2h17.75l0.78,1.3L111.72,97.5h-16.7L77.14,54.95
				c-2.09-5.35-4.31-6.66-6.39-6.66c-1.3-0.13-2.48,0.26-3.39,1.05l-1.3-0.65l-2.61-14.22l0.78-1.44c2.35-1.44,5.74-2.35,9.53-2.35
				c10.7,0,16.05,6.52,20.36,19.31L94.1,50z"/>
			<path class="st2" d="M156.61,69.84c1.18,9.79,9.26,14.35,18.4,14.35c6.92,0,13.83-2.48,18.14-7.18h1.44l9.13,8.74v1.44
				c-7.31,8.61-19.31,11.87-29.62,11.87c-19.58,0-37.06-11.74-37.06-34.06c0-19.97,14.09-34.32,35.11-34.32s34.58,14.09,34.58,33.8
				c0,1.96-0.13,3.66-0.39,5.35h-49.72L156.61,69.84z M156.48,59.4h30.93c-0.78-9.27-6.92-14.49-15.4-14.49
				S157.13,50.39,156.48,59.4z"/>
			<path class="st2" d="M214.68,10.98l18.66-2.48l1.43,1.05v67.08c0,3,0.78,4.83,2.87,4.83c0.91,0,1.57-0.26,1.96-0.65l1.3,0.65
				l2.48,13.44l-0.78,1.43c-2.87,1.7-6.52,2.74-10.7,2.74c-11.09,0-17.23-6.92-17.23-19.05L214.68,10.98L214.68,10.98z"/>
			<path class="st2" d="M318.95,33.56l-29.89,66.3c-6.13,13.7-15.27,17.23-24.27,17.23c-4.83,0-8.48-0.91-11.61-2.74l-0.78-1.43
				l3.91-12.27l1.18-0.65c1.43,0.78,2.87,1.44,5.35,1.44c3.52,0,7.05-1.44,9.13-5.74l1.83-3.66l-17.75-37.06
				c-2.61-5.48-4.44-6.66-6.39-6.66c-1.44-0.13-2.61,0.26-3.52,1.05l-1.18-0.65l-2.61-14.22l0.65-1.44
				c2.48-1.57,5.74-2.35,9.53-2.35c10.83,0,15.92,6.92,21.27,19.31l9.66,21.92l17.23-39.67h17.49l0.78,1.3L318.95,33.56z"/>
		</g>
		<path class="st2" d="M323.46,32.64h6.39v1.11h-2.57v7.52h-1.27v-7.52h-2.55L323.46,32.64L323.46,32.64z M339.77,41.27l-0.75-6.31
			l-2.63,5.39h-1.02l-2.61-5.37l-0.77,6.29h-1.32l1.09-8.63h1.11l3.03,6.33l3.01-6.33h1.11l1.07,8.63h-1.29L339.77,41.27z"/>
	</g>
	<g class="st1">
		<path class="st2" d="M0.33,190.36c0-19.39,14.29-32.09,31.4-32.09s31.53,12.71,31.53,32.09s-14.41,32.23-31.53,32.23
			S0.33,209.74,0.33,190.36z M52.06,190.36c0-12.58-9.27-21.35-20.33-21.35s-20.08,8.78-20.08,21.35s9.14,21.48,20.08,21.48
			S52.06,203.06,52.06,190.36z"/>
		<path class="st2" d="M129.02,185.64v35.37h-11.2V186.3c0-10.22-6.18-16.77-14.54-16.77s-18.4,5.11-18.4,18.34v33.14h-11.2v-61.18
			h11.2v9.3c3.6-7.47,13.38-10.87,19.95-10.87C119.76,158.26,129.15,168.48,129.02,185.64L129.02,185.64z"/>
		<path class="st2" d="M216.27,197.82h-38.09l-8.62,23.19h-12.23l33.72-90.26h12.35l33.72,90.26h-12.23L216.27,197.82L216.27,197.82
			z M212.41,187.34l-15.19-40.87l-15.19,40.87h30.37H212.41z"/>
		<path class="st2" d="M304.68,190.49c0,19.39-13.51,32.09-29.99,32.09c-9.01,0-17.5-3.93-21.49-11.13v39.3H242v-90.91h11.2v9.56
			c3.99-6.94,12.74-11.13,21.36-11.13C291.03,158.27,304.67,171.24,304.68,190.49L304.68,190.49z M293.35,190.62
			c0-12.18-8.75-21.61-19.82-21.61s-20.33,8.51-20.33,21.61s10.55,21.22,20.33,21.22C284.6,211.84,293.35,202.93,293.35,190.62z"/>
		<path class="st2" d="M377.77,190.49c0,19.39-13.51,32.09-29.99,32.09c-9.01,0-17.5-3.93-21.49-11.13v39.3h-11.2v-90.91h11.2v9.56
			c3.99-6.94,12.74-11.13,21.36-11.13c16.47,0,30.11,12.97,30.11,32.22L377.77,190.49z M366.44,190.62
			c0-12.18-8.75-21.61-19.82-21.61s-20.33,8.51-20.33,21.61s10.55,21.22,20.33,21.22C357.69,211.84,366.44,202.93,366.44,190.62z"/>
		<path class="st2" d="M388.19,126.56h11.2v94.45h-11.2V126.56z"/>
		<path class="st2" d="M470.04,195.33h-48.9c1.67,10.87,9.39,16.51,19.69,16.51c7.34,0,14.16-3.41,17.5-9.56l9.78,3.93
			c-5.28,10.61-16.09,16.38-27.67,16.38c-17.12,0-30.89-12.97-30.89-32.36s13.77-31.96,30.89-31.96s29.86,12.58,29.86,31.96
			C470.3,191.93,470.17,193.64,470.04,195.33L470.04,195.33z M459.1,185.51c-1.42-10.48-8.75-16.51-18.66-16.51
			s-17.37,5.5-19.18,16.51H459.1z"/>
		<path class="st2" d="M609.28,130.75l-29.99,90.26h-10.17l-15.96-56.98l-15.83,56.98h-10.17l-29.99-90.26h12.48l22.65,71.39
			l16.47-59.08h8.88l16.6,58.82l22.52-71.13h12.48L609.28,130.75z"/>
		<path class="st2" d="M668.48,159.83v61.18h-11.2v-10.87c-3.99,7.34-12.35,12.45-22.01,12.45c-15.7,0-29.47-13.49-29.47-32.23
			s13-32.09,29.99-32.09c9.01,0,17.5,3.93,21.49,11.13v-9.56h11.2V159.83z M657.28,190.35c0-12.58-10.42-21.35-20.59-21.35
			c-10.81,0-19.56,9.83-19.56,21.35s8.75,21.48,19.82,21.48S657.28,202.79,657.28,190.35z"/>
		<path class="st2" d="M711.72,169.66h-13v51.35h-11.2v-51.35h-10.81v-9.83h10.81v-23.05h11.2v23.05h13V169.66L711.72,169.66z"/>
		<path class="st2" d="M713.78,190.36c0-19.39,15.06-32.09,32.3-32.09c9.39,0,17.63,3.8,22.91,9.69l-7.08,7.47
			c-3.73-3.93-9.14-6.42-15.44-6.42c-11.84,0-21.36,8.78-21.36,21.35s9.52,21.48,21.36,21.48c6.31,0,11.71-2.49,15.44-6.42
			l7.08,7.47c-5.28,6.03-13.51,9.69-22.91,9.69C728.84,222.58,713.78,209.74,713.78,190.36L713.78,190.36z"/>
		<path class="st2" d="M833.33,185.64v35.37h-11.2V186.3c0-10.22-6.18-16.77-14.54-16.77s-18.4,5.11-18.4,18.34v33.14h-11.2v-94.45
			h11.2v42.57c3.6-7.47,13.38-10.87,19.95-10.87C824.07,158.26,833.46,168.48,833.33,185.64L833.33,185.64z"/>
	</g>
</g>
</svg>
