<?xml version="1.0" encoding="utf-8"?>
<!-- Generator: Adobe Illustrator 26.2.1, SVG Export Plug-In . SVG Version: 6.00 Build 0)  -->
<svg version="1.1" xmlns="http://www.w3.org/2000/svg" xmlns:xlink="http://www.w3.org/1999/xlink" x="0px" y="0px"
	 viewBox="0 0 428 250.7" style="enable-background:new 0 0 428 250.7;" xml:space="preserve">
<style type="text/css">
	.st0{display:none;}
	.st1{display:inline;}
</style>
<g id="LOGOS" class="st0">
	<path class="st1" d="M2.2,11.2l18.7-2.5l1.4,1v67.1c0,3,0.8,4.8,2.9,4.8c0.7,0.1,1.5-0.2,2-0.7l1.3,0.7L31,95.1l-0.8,1.4
		c-3.3,1.9-7,2.8-10.7,2.7c-11.1,0-17.2-6.9-17.2-19.1L2.2,11.2z"/>
	<path class="st1" d="M35.5,12.7c0-6.9,5.5-12.5,12.4-12.5c6.9,0,12.5,5.5,12.5,12.4c0,6.9-5.5,12.5-12.4,12.5c0,0-0.1,0-0.1,0
		C41.1,25.1,35.5,19.6,35.5,12.7z M58,97.7V32.4H37.9v65.3L58,97.7z"/>
	<path class="st1" d="M93.6,50.2l9.3,25.4l16.4-43.2h17.8l0.8,1.3l-26.6,64H94.5L76.7,55.2c-2.1-5.3-4.3-6.7-6.4-6.7
		c-1.2-0.2-2.4,0.2-3.4,1l-1.3-0.7l-2.6-14.2l0.8-1.4c2.9-1.6,6.2-2.4,9.5-2.4C83.9,30.9,89.3,37.4,93.6,50.2z"/>
	<path class="st1" d="M156.1,70c1.2,9.8,9.3,14.4,18.4,14.4c6.9,0,13.8-2.5,18.1-7.2h1.5l9.1,8.7v1.4c-7.3,8.6-19.3,11.9-29.6,11.9
		c-19.6,0-37.1-11.7-37.1-34.1c0-20,14.1-34.3,35.1-34.3c20.8,0,34.6,14.1,34.6,33.8c0,1.8-0.1,3.6-0.4,5.3L156.1,70z M156,59.6
		h30.9c-0.8-9.3-6.9-14.5-15.4-14.5S156.6,50.6,156,59.6L156,59.6z"/>
	<path class="st1" d="M214.2,11.2l18.7-2.5l1.4,1v67.1c0,3,0.8,4.8,2.9,4.8c0.7,0.1,1.4-0.2,2-0.7l1.3,0.7l2.5,13.4l-0.8,1.4
		c-3.3,1.9-7,2.8-10.7,2.7c-11.1,0-17.2-6.9-17.2-19.1L214.2,11.2z"/>
	<path class="st1" d="M318.4,33.7L288.6,100c-6.1,13.7-15.3,17.2-24.3,17.2c-4.8,0-8.5-0.9-11.6-2.7l-0.8-1.4l3.9-12.2l1.2-0.6
		c1.6,1,3.5,1.5,5.4,1.4c3.9,0.1,7.6-2.1,9.1-5.7l1.8-3.6l-17.8-37.1c-2.6-5.5-4.4-6.7-6.4-6.7c-1.3-0.2-2.5,0.2-3.5,1l-1.2-0.7
		l-2.6-14.2l0.6-1.4c2.9-1.7,6.2-2.5,9.5-2.4c10.8,0,15.9,6.9,21.3,19.3l9.6,21.9l17.2-39.7h17.5L318.4,33.7z"/>
	<path class="st1" d="M323,32.9h6.4V34h-2.6v7.5h-1.3v-7.5H323L323,32.9z M339.3,41.5l-0.8-6.3l-2.6,5.4h-1l-2.6-5.4l-0.8,6.3h-1.3
		l1.1-8.6h1.1l3,6.3l3-6.3h1.1l1.1,8.6H339.3z"/>
	<path class="st1" d="M-0.2,190.5c0-19.4,14.3-32.1,31.4-32.1s31.5,12.7,31.5,32.1s-14.4,32.2-31.5,32.2S-0.2,209.9-0.2,190.5z
		 M51.5,190.5c0-12.6-9.3-21.4-20.3-21.4s-20.1,8.8-20.1,21.4S20.2,212,31.2,212S51.5,203.2,51.5,190.5z"/>
	<path class="st1" d="M128.5,185.9v35.4h-11.2v-34.7c0-10.2-6.2-16.8-14.5-16.8s-18.4,5.1-18.4,18.3v33.1H73.1V160h11.2v9.3
		c3.6-7.5,13.4-10.9,19.9-10.9C119.2,158.4,128.6,168.7,128.5,185.9z"/>
	<path class="st1" d="M228.1,160v61.2h-11.2v-10.9c-4,7.3-12.4,12.4-22,12.4c-15.7,0-29.5-13.5-29.5-32.2c0-18.1,13-32.1,30-32.1
		c9,0,17.5,3.9,21.5,11.1V160H228.1z M216.9,190.5c0-12.6-10.4-21.4-20.6-21.4c-10.8,0-19.6,9.8-19.6,21.4s8.8,21.5,19.8,21.5
		C207.2,212,216.9,203,216.9,190.5z"/>
	<path class="st1" d="M242.5,126.7h11.2v94.4h-11.2V126.7z"/>
	<path class="st1" d="M324.3,195.5h-48.9c1.7,10.9,9.4,16.5,19.7,16.5c7.3,0,14.1-3.4,17.5-9.6l9.8,3.9
		c-5.3,10.6-16.1,16.4-27.7,16.4c-17.1,0-30.9-13-30.9-32.4s13.8-32,30.9-32s29.9,12.6,29.9,32C324.6,192.1,324.5,193.9,324.3,195.5
		z M313.4,185.7c-1.4-10.5-8.8-16.5-18.7-16.5c-10.2,0-17.4,5.5-19.2,16.5H313.4z"/>
	<path class="st1" d="M371.3,221.2l-17-24l-17.1,24h-13.4l23.8-33.7L328.2,160h13.5l12.6,18.2l12.6-18.2h13.6L361,187.7l23.7,33.5
		H371.3z"/>
	<path class="st1" d="M446.6,160v61.2h-11.2v-10.9c-4,7.3-12.4,12.4-22,12.4c-15.7,0-29.5-13.5-29.5-32.2c0-18.1,13-32.1,30-32.1
		c9,0,17.5,3.9,21.5,11.1V160H446.6z M435.4,190.5c0-12.6-10.4-21.4-20.6-21.4c-10.8,0-19.6,9.8-19.6,21.4S404,212,415.1,212
		C425.7,212,435.4,203,435.4,190.5z"/>
	<path class="st1" d="M547.1,126.7v94.4h-11.2v-9.6c-4,6.9-12.7,11.1-21.4,11.1c-16.5,0-30.1-13-30.1-32.2s13.5-32.1,30-32.1
		c9,0,17.5,3.9,21.5,11.1v-42.8H547.1z M535.9,190.4c0.3-11.5-8.8-21-20.3-21.2c-0.1,0-0.1,0-0.2,0c-10.9,0-19.7,8.9-19.7,21.2
		s8.8,21.6,19.7,21.6C526.4,212,535.9,203.5,535.9,190.4L535.9,190.4z"/>
	<path class="st1" d="M617.9,195.5H569c1.7,10.9,9.4,16.5,19.7,16.5c7.3,0,14.2-3.4,17.5-9.6l9.8,3.9c-5.3,10.6-16.1,16.4-27.7,16.4
		c-17.1,0-30.9-13-30.9-32.4s13.8-32,30.9-32s29.8,12.6,29.8,32C618.1,192.1,618,193.9,617.9,195.5z M606.9,185.7
		c-1.4-10.5-8.8-16.5-18.7-16.5c-10.2,0-17.4,5.5-19.2,16.5H606.9z"/>
	<path class="st1" d="M680.3,160l-25.1,61.2h-10.9l-25-61.2h12l18.5,46.6l18.4-46.6H680.3z"/>
	<path class="st1" d="M685.2,137.5c-0.2-4.4,3.2-8.1,7.6-8.2c4.4-0.2,8.1,3.2,8.2,7.6s-3.2,8.1-7.6,8.2c-0.1,0-0.3,0-0.4,0
		C688.8,145.2,685.3,141.8,685.2,137.5C685.2,137.5,685.2,137.5,685.2,137.5z M687.5,160h11.2v61.2h-11.2L687.5,160z"/>
	<path class="st1" d="M709.5,190.5c0-19.4,15.1-32.1,32.3-32.1c8.7-0.2,17,3.4,22.9,9.7l-7.1,7.5c-4-4.2-9.6-6.5-15.4-6.4
		c-11.8,0-21.4,8.8-21.4,21.4c0,11.9,9.6,21.5,21.5,21.5c5.8,0,11.3-2.3,15.3-6.4l7.1,7.5c-5.3,6-13.5,9.7-22.9,9.7
		C724.6,222.8,709.5,209.9,709.5,190.5z"/>
	<path class="st1" d="M829.2,195.5h-48.9c1.7,10.9,9.4,16.5,19.7,16.5c7.3,0,14.2-3.4,17.5-9.6l9.8,3.9
		c-5.3,10.6-16.1,16.4-27.7,16.4c-17.1,0-30.9-13-30.9-32.4s13.8-32,30.9-32s29.9,12.6,29.9,32C829.4,192.1,829.3,193.9,829.2,195.5
		z M818.2,185.7c-1.4-10.5-8.8-16.5-18.7-16.5c-10.2,0-17.4,5.5-19.2,16.5H818.2z"/>
	<path class="st1" d="M835.4,203.2h10.4c0.1,5.2,4.6,9.6,12,9.6c7.6,0,12.1-3.8,12.1-8.8c0-4.6-3.5-6.9-8.2-8l-8.2-2
		c-10-2.8-15.8-7.7-15.8-17.6c0-10.1,8.5-18.1,20.6-18.1c10.2,0,20.7,5.5,20.7,17.8h-10.8c-0.1-4.7-4.9-7.9-9.7-7.9
		c-5.8,0-9.7,3.8-9.7,8.5c0,4.2,3.9,6.4,7.7,7.3l8.9,2.2c12.5,3.1,15.7,10.7,15.7,17.7c0,11.4-10.8,18.6-23.3,18.6
		C846.9,222.8,835.9,215.9,835.4,203.2z"/>
</g>
<g id="Layer_2" class="st0">
	<path class="st1" d="M2.5,11l18.7-2.5l1.4,1v67.1c0,3,0.8,4.8,2.9,4.8c0.7,0.1,1.5-0.2,2-0.7l1.3,0.7l2.5,13.4l-0.8,1.4
		c-3.3,1.9-7,2.8-10.7,2.7C8.6,99.1,2.5,92.2,2.5,80L2.5,11z"/>
	<path class="st1" d="M35.7,12.5C35.7,5.7,41.3,0,48.1,0C55,0,60.6,5.5,60.7,12.4c0,6.9-5.5,12.5-12.4,12.5c0,0-0.1,0-0.1,0
		C41.3,24.9,35.8,19.4,35.7,12.5z M58.2,97.5V32.2H38.1v65.3L58.2,97.5z"/>
	<path class="st1" d="M93.8,50l9.3,25.5l16.4-43.2h17.8l0.8,1.3l-26.6,64H94.8L76.9,55c-2.1-5.3-4.3-6.7-6.4-6.7
		c-1.2-0.2-2.4,0.2-3.4,1l-1.3-0.7l-2.6-14.2l0.8-1.4c2.9-1.6,6.2-2.4,9.5-2.4C84.2,30.7,89.5,37.2,93.8,50z"/>
	<path class="st1" d="M156.3,69.8c1.2,9.8,9.3,14.4,18.4,14.4c6.9,0,13.8-2.5,18.1-7.2h1.5l9.1,8.7v1.4
		c-7.3,8.6-19.3,11.9-29.6,11.9c-19.6,0-37.1-11.7-37.1-34.1c0-20,14.1-34.3,35.1-34.3c20.8,0,34.6,14.1,34.6,33.8
		c0,1.8-0.1,3.6-0.4,5.3L156.3,69.8z M156.2,59.4h30.9c-0.8-9.3-6.9-14.5-15.4-14.5S156.8,50.4,156.2,59.4L156.2,59.4z"/>
	<path class="st1" d="M214.4,11l18.7-2.5l1.4,1v67.1c0,3,0.8,4.8,2.9,4.8c0.7,0.1,1.4-0.2,2-0.7l1.3,0.7l2.5,13.4l-0.8,1.4
		c-3.3,1.9-7,2.8-10.7,2.7c-11.1,0-17.2-6.9-17.2-19.1L214.4,11z"/>
	<path class="st1" d="M318.7,33.5l-29.9,66.3c-6.1,13.7-15.3,17.2-24.3,17.2c-4.8,0-8.5-0.9-11.6-2.7l-0.8-1.4l3.9-12.2l1.2-0.6
		c1.6,1,3.5,1.5,5.4,1.4c3.9,0.1,7.6-2.1,9.1-5.7l1.8-3.6L255.8,55c-2.6-5.5-4.4-6.7-6.4-6.7c-1.3-0.2-2.5,0.2-3.5,1l-1.2-0.7
		l-2.6-14.2l0.6-1.4c2.9-1.7,6.2-2.5,9.5-2.4c10.8,0,15.9,6.9,21.3,19.3l9.6,21.9l17.2-39.7h17.5L318.7,33.5z"/>
	<path class="st1" d="M323.2,32.7h6.4v1.1H327v7.5h-1.3v-7.5h-2.5L323.2,32.7z M339.5,41.3l-0.8-6.3l-2.6,5.4h-1l-2.6-5.4l-0.8,6.3
		h-1.3l1.1-8.6h1.1l3,6.3l3-6.3h1.1l1.1,8.6H339.5z"/>
	<path class="st1" d="M0,190.3c0-19.4,14.3-32.1,31.4-32.1s31.5,12.7,31.5,32.1s-14.4,32.2-31.5,32.2S0,209.7,0,190.3z M51.7,190.3
		c0-12.6-9.3-21.4-20.3-21.4s-20.1,8.8-20.1,21.4s9.1,21.5,20.1,21.5S51.7,203,51.7,190.3z"/>
	<path class="st1" d="M128.7,185.7V221h-11.2v-34.7c0-10.2-6.2-16.8-14.5-16.8s-18.4,5.1-18.4,18.3V221H73.4v-61.2h11.2v9.3
		c3.6-7.5,13.4-10.9,19.9-10.9C119.4,158.2,128.8,168.5,128.7,185.7z"/>
	<path class="st1" d="M228.3,159.8V221h-11.2v-10.9c-4,7.3-12.4,12.4-22,12.4c-15.7,0-29.5-13.5-29.5-32.2c0-18.1,13-32.1,30-32.1
		c9,0,17.5,3.9,21.5,11.1v-9.6H228.3z M217.1,190.3c0-12.6-10.4-21.4-20.6-21.4c-10.8,0-19.6,9.8-19.6,21.4s8.8,21.5,19.8,21.5
		C207.4,211.8,217.1,202.8,217.1,190.3z"/>
	<path class="st1" d="M305.4,190.5c0,19.4-13.5,32.1-30,32.1c-9,0-17.5-3.9-21.5-11.1v39.3h-11.2v-90.9h11.2v9.6
		c4-6.9,12.7-11.1,21.4-11.1C291.7,158.2,305.4,171.2,305.4,190.5z M294,190.6c0-12.2-8.8-21.6-19.8-21.6
		c-10.7,0-20.3,8.5-20.3,21.6c-0.3,11.4,8.8,20.9,20.2,21.2c0,0,0.1,0,0.1,0C285.3,211.8,294,202.9,294,190.6L294,190.6z"/>
	<path class="st1" d="M378.5,190.5c0,19.4-13.5,32.1-30,32.1c-9,0-17.5-3.9-21.5-11.1v39.3h-11.2v-90.9H327v9.6
		c4-6.9,12.7-11.1,21.4-11.1C364.8,158.2,378.5,171.2,378.5,190.5z M367.2,190.6c0-12.2-8.8-21.6-19.8-21.6
		c-10.7,0-20.3,8.5-20.3,21.6c-0.3,11.5,8.8,21,20.2,21.2c0,0,0,0,0.1,0C358.4,211.8,367.2,202.9,367.2,190.6L367.2,190.6z"/>
	<path class="st1" d="M388.9,126.5h11.2V221h-11.2V126.5z"/>
	<path class="st1" d="M470.7,195.3h-48.9c1.7,10.9,9.4,16.5,19.7,16.5c7.3,0,14.2-3.4,17.5-9.6l9.8,3.9
		c-5.3,10.6-16.1,16.4-27.7,16.4c-17.1,0-30.9-13-30.9-32.4s13.8-32,30.9-32c17.1,0,29.8,12.6,29.8,32
		C471,191.9,470.9,193.7,470.7,195.3z M459.8,185.5C458.4,175,451,169,441.1,169c-10.2,0-17.4,5.5-19.2,16.5H459.8z"/>
	<path class="st1" d="M597,159.8L574.6,221h-9.4l-16.6-45.5l-16,45.5h-9.3l-22.9-61.2h12.1l15.3,43.5l15.3-43.5h10.9l15.4,43.5
		l15.3-43.5H597z"/>
	<path class="st1" d="M661.2,159.8V221H650v-10.9c-4,7.3-12.3,12.4-22,12.4c-15.7,0-29.5-13.5-29.5-32.2c0-18.1,13-32.1,30-32.1
		c9,0,17.5,3.9,21.5,11.1v-9.6H661.2z M650,190.3c0-12.6-10.4-21.4-20.6-21.4c-10.8,0-19.6,9.8-19.6,21.4s8.8,21.5,19.8,21.5
		C640.3,211.8,650,202.8,650,190.3z"/>
	<path class="st1" d="M704.4,169.7h-13V221h-11.2v-51.4h-10.8v-9.8h10.8v-23h11.2v23h13V169.7z"/>
	<path class="st1" d="M706.5,190.3c0-19.4,15.1-32.1,32.3-32.1c8.7-0.2,17,3.4,22.9,9.7l-7.1,7.5c-4-4.2-9.6-6.5-15.4-6.4
		c-11.8,0-21.4,8.8-21.4,21.4c0,11.9,9.6,21.5,21.5,21.5c5.8,0,11.3-2.3,15.3-6.4l7.1,7.5c-5.3,6-13.5,9.7-22.9,9.7
		C721.5,222.6,706.5,209.7,706.5,190.3z"/>
	<path class="st1" d="M826,185.7V221h-11.2v-34.7c0-10.2-6.2-16.8-14.5-16.8s-18.4,5.1-18.4,18.3V221h-11.2v-94.4h11.2v42.6
		c3.6-7.5,13.4-10.9,20-10.9C816.8,158.2,826.2,168.5,826,185.7z"/>
</g>
<g id="Layer_3">
	<g id="labels">
		<path d="M96.4,186.8v35.1H85v-34.4c0-10.1-5.6-16.9-14.4-16.9c-10.8-0.1-17.3,9.2-16.2,20.9l-0.1-0.5v30.9H42.9v-34.4
			c0-10.3-5.6-16.9-13.6-16.9c-8.6,0-17.2,5.6-17.2,18.5v32.9H0.8v-60.7h11.3v9.2c3.1-6.5,10.9-10.8,19.5-10.8
			c8.8,0,16.5,4.7,20,12.9c5.5-10.9,15.1-12.9,21.2-12.9C88,159.6,96.4,169.8,96.4,186.8z"/>
		<path d="M106.6,191.5c0-19.2,14.4-31.9,31.7-31.9s31.9,12.6,31.9,31.9s-14.6,32-31.9,32S106.6,210.7,106.6,191.5z M158.9,191.5
			c0-12.5-9.4-21.2-20.5-21.2s-20.3,8.7-20.3,21.2s9.2,21.3,20.3,21.3S158.9,204.1,158.9,191.5z"/>
		<path d="M244.8,191.5c0,19.1-13.8,32-30.4,32c-8.7,0-17.5-4.2-21.6-11v9.5h-11.3v-93.8h11.3v42.5c4-7.1,12.6-11,21.7-11
			C231.2,159.6,244.8,172.2,244.8,191.5z M233.4,191.3c0-12.2-8.8-21.1-20-21.1c-11.5,0.1-20.7,9.5-20.6,21c0,0,0,0.1,0,0.1
			c0,13,9.8,21.5,20.5,21.5C224.6,212.8,233.4,203.4,233.4,191.3z"/>
		<path d="M255,141.4c0.1-4.3,3.6-7.6,7.9-7.5c0,0,0,0,0,0c4.4,0,8.1,3.2,8.1,7.5s-3.6,7.5-8.1,7.5
			C258.6,149.1,255.1,145.7,255,141.4C255,141.4,255,141.4,255,141.4z M257.3,161.2h11.3v60.7h-11.3V161.2z"/>
		<path d="M283.8,128.2h11.3v93.7h-11.3V128.2z"/>
		<path d="M366,196.4h-49.4c1.7,10.8,9.5,16.4,19.9,16.4c7.4,0,14.3-3.4,17.7-9.5l9.9,3.9c-5.3,10.5-16.2,16.2-28,16.2
			c-17.3,0-31.2-12.9-31.2-32.1s13.9-31.7,31.2-31.7s30.2,12.5,30.2,31.7C366.2,193,366.1,194.7,366,196.4z M355,186.7
			c-1.4-10.4-8.8-16.4-18.8-16.4c-10.3,0-17.5,5.5-19.4,16.4H355z"/>
		<path d="M427.3,193.4h-21.1v21.3h-11v-21.3H374v-11h21.2v-21.1h11v21.1h21.1L427.3,193.4z"/>
		<path d="M0.8,12.2l18.7-2.5l1.4,1v67.1c0,3,0.8,4.8,2.9,4.8c0.7,0.1,1.4-0.2,2-0.7l1.3,0.7l2.5,13.4l-0.8,1.4
			c-3.3,1.9-7,2.8-10.7,2.7c-11.1,0-17.2-6.9-17.2-19L0.8,12.2z"/>
		<path d="M34.1,13.8c0-6.9,5.5-12.5,12.4-12.5C53.4,1.2,59,6.8,59,13.7s-5.5,12.5-12.4,12.5c0,0-0.1,0-0.1,0
			C39.6,26.2,34.1,20.6,34.1,13.8z M56.5,98.7V33.5H36.4v65.2L56.5,98.7z"/>
		<path d="M92.2,51.2l9.3,25.4l16.4-43.2h17.8l0.8,1.3l-26.6,63.9H93L75.1,56.2c-2.1-5.3-4.3-6.7-6.4-6.7c-1.2-0.2-2.4,0.2-3.4,1
			l-1.3-0.7l-2.6-14.2l0.8-1.4c2.9-1.6,6.2-2.4,9.5-2.3C82.5,31.9,87.8,38.5,92.2,51.2z"/>
		<path d="M154.6,71.1c1.2,9.8,9.3,14.4,18.4,14.4c6.9,0,13.8-2.5,18.1-7.2h1.4l9.1,8.7v1.4c-7.3,8.6-19.3,11.9-29.6,11.9
			c-19.6,0-37.1-11.7-37.1-34c0-20,14.1-34.3,35.1-34.3c20.8,0,34.6,14.1,34.6,33.8c0,1.8-0.1,3.6-0.4,5.3L154.6,71.1z M154.5,60.6
			h30.9c-0.8-9.3-6.9-14.5-15.4-14.5S155.2,51.6,154.5,60.6z"/>
		<path d="M212.7,12.2l18.7-2.5l1.4,1v67.1c0,3,0.8,4.8,2.9,4.8c0.7,0.1,1.4-0.2,2-0.7l1.3,0.7l2.5,13.4l-0.8,1.4
			c-3.3,1.9-7,2.8-10.7,2.7c-11.1,0-17.2-6.9-17.2-19L212.7,12.2z"/>
		<path d="M317,34.8l-29.9,66.3c-6.1,13.7-15.3,17.2-24.3,17.2c-4.8,0-8.5-0.9-11.6-2.7l-0.8-1.4l3.9-12.3l1.2-0.6
			c1.6,1,3.5,1.5,5.4,1.4c3.9,0.1,7.6-2.1,9.1-5.7l1.8-3.6L254,56.2c-2.6-5.5-4.4-6.7-6.4-6.7c-1.3-0.2-2.5,0.2-3.5,1l-1.1-0.6
			l-2.7-14.2l0.6-1.4c2.9-1.7,6.2-2.5,9.5-2.3c10.8,0,15.9,6.9,21.3,19.3l9.6,21.9l17.2-39.6h17.5L317,34.8z"/>
		<path d="M336.5,40.6c0,4-3.2,7.2-7.1,7.2c-4,0-7.2-3.2-7.2-7.1s3.2-7.2,7.1-7.2c0,0,0,0,0,0c3.9-0.1,7.1,3,7.2,6.8
			C336.5,40.4,336.5,40.5,336.5,40.6z M323.4,40.6c0.1,3.3,2.7,5.8,6,5.8c3.3-0.1,5.8-2.7,5.8-6c-0.1-3.2-2.7-5.8-5.9-5.8
			c-3.2,0-5.9,2.5-5.9,5.7C323.4,40.4,323.4,40.5,323.4,40.6z M328.9,41.1h-1.4v3.7h-1.2v-8.6h3.1c2,0,3,0.9,3,2.6
			c0.1,1.2-0.8,2.2-1.9,2.4c-0.1,0-0.1,0-0.2,0l2.1,3.7H331L328.9,41.1z M331.2,38.6c0-0.8-0.6-1.4-1.3-1.4c-0.1,0-0.2,0-0.2,0h-2.1
			V40h2.1c0.8,0.1,1.4-0.4,1.5-1.2C331.2,38.8,331.2,38.7,331.2,38.6z"/>
	</g>
</g>
</svg>
