<?xml version="1.0" encoding="utf-8"?>
<!-- Generator: Adobe Illustrator 26.3.1, SVG Export Plug-In . SVG Version: 6.00 Build 0)  -->
<svg version="1.1" id="LOGOS" xmlns="http://www.w3.org/2000/svg" xmlns:xlink="http://www.w3.org/1999/xlink" x="0px" y="0px"
	 viewBox="0 0 833 250.7" style="enable-background:new 0 0 833 250.7;" xml:space="preserve">
<g>
	<g>
		<path d="M2.4,11l18.7-2.5l1.4,1.1v67.1c0,3,0.8,4.8,2.9,4.8c0.9,0,1.6-0.3,2-0.7l1.3,0.7l2.5,13.4l-0.8,1.4
			c-2.9,1.7-6.5,2.7-10.7,2.7C8.5,99.1,2.4,92.1,2.4,80L2.4,11L2.4,11z"/>
		<path d="M35.7,12.5C35.7,5.6,41.2,0,48.1,0s12.5,5.6,12.5,12.5S55,24.9,48.1,24.9S35.7,19.5,35.7,12.5z M58.2,97.5V32.2H38.1v65.3
			H58.2z"/>
		<path d="M93.8,50l9.3,25.5l16.4-43.2h17.8l0.8,1.3l-26.6,63.9H94.7L76.8,54.9c-2.1-5.3-4.3-6.7-6.4-6.7c-1.3-0.1-2.5,0.3-3.4,1
			l-1.3-0.7l-2.6-14.2l0.8-1.4c2.3-1.4,5.7-2.4,9.5-2.4C84.1,30.7,89.5,37.2,93.8,50L93.8,50z"/>
		<path d="M156.3,69.8c1.2,9.8,9.3,14.3,18.4,14.3c6.9,0,13.8-2.5,18.1-7.2h1.4l9.1,8.7v1.4c-7.3,8.6-19.3,11.9-29.6,11.9
			c-19.6,0-37.1-11.7-37.1-34.1c0-20,14.1-34.3,35.1-34.3s34.6,14.1,34.6,33.8c0,2-0.1,3.7-0.4,5.3L156.3,69.8L156.3,69.8z
			 M156.1,59.4h30.9c-0.8-9.3-6.9-14.5-15.4-14.5S156.8,50.4,156.1,59.4z"/>
		<path d="M214.4,11L233,8.5l1.4,1.1v67.1c0,3,0.8,4.8,2.9,4.8c0.9,0,1.6-0.3,2-0.7l1.3,0.7l2.5,13.4l-0.8,1.4
			c-2.9,1.7-6.5,2.7-10.7,2.7c-11.1,0-17.2-6.9-17.2-19.1L214.4,11L214.4,11z"/>
		<path d="M318.6,33.5l-29.9,66.3c-6.1,13.7-15.3,17.2-24.3,17.2c-4.8,0-8.5-0.9-11.6-2.7l-0.8-1.4l3.9-12.3l1.2-0.7
			c1.4,0.8,2.9,1.4,5.4,1.4c3.5,0,7-1.4,9.1-5.7l1.8-3.7L255.7,55c-2.6-5.5-4.4-6.7-6.4-6.7c-1.4-0.1-2.6,0.3-3.5,1l-1.2-0.7
			L242,34.5l0.6-1.4c2.5-1.6,5.7-2.4,9.5-2.4c10.8,0,15.9,6.9,21.3,19.3l9.7,21.9l17.2-39.7h17.5L318.6,33.5L318.6,33.5z"/>
	</g>
	<path d="M323.1,32.6h6.4v1.1H327v7.5h-1.3v-7.5h-2.5L323.1,32.6L323.1,32.6z M339.4,41.2l-0.8-6.3l-2.6,5.4h-1l-2.6-5.4l-0.8,6.3
		h-1.3l1.1-8.6h1.1l3,6.3l3-6.3h1.1l1.1,8.6L339.4,41.2L339.4,41.2z"/>
</g>
<g>
	<path d="M0,190.3c0-19.4,14.3-32.1,31.4-32.1s31.5,12.7,31.5,32.1s-14.4,32.2-31.5,32.2S0,209.7,0,190.3z M51.7,190.3
		c0-12.6-9.3-21.4-20.3-21.4s-20.1,8.8-20.1,21.4s9.1,21.5,20.1,21.5S51.7,203,51.7,190.3z"/>
	<path d="M128.7,185.6V221h-11.2v-34.7c0-10.2-6.2-16.8-14.5-16.8s-18.4,5.1-18.4,18.3V221H73.4v-61.2h11.2v9.3
		c3.6-7.5,13.4-10.9,19.9-10.9C119.4,158.2,128.8,168.5,128.7,185.6L128.7,185.6z"/>
	<path d="M215.9,197.8h-38.1l-8.6,23.2H157l33.7-90.3h12.4l33.7,90.3h-12.2L215.9,197.8L215.9,197.8z M212.1,187.3l-15.2-40.9
		l-15.2,40.9H212.1L212.1,187.3z"/>
	<path d="M304.4,190.5c0,19.4-13.5,32.1-30,32.1c-9,0-17.5-3.9-21.5-11.1v39.3h-11.2v-90.9h11.2v9.6c4-6.9,12.7-11.1,21.4-11.1
		C290.7,158.2,304.3,171.2,304.4,190.5L304.4,190.5z M293,190.6c0-12.2-8.8-21.6-19.8-21.6s-20.3,8.5-20.3,21.6s10.6,21.2,20.3,21.2
		C284.3,211.8,293,202.9,293,190.6z"/>
	<path d="M377.4,190.5c0,19.4-13.5,32.1-30,32.1c-9,0-17.5-3.9-21.5-11.1v39.3h-11.2v-90.9H326v9.6c4-6.9,12.7-11.1,21.4-11.1
		C363.8,158.2,377.4,171.2,377.4,190.5L377.4,190.5z M366.1,190.6c0-12.2-8.8-21.6-19.8-21.6s-20.3,8.5-20.3,21.6
		s10.5,21.2,20.3,21.2C357.4,211.8,366.1,202.9,366.1,190.6z"/>
	<path d="M387.9,126.5h11.2V221h-11.2V126.5z"/>
	<path d="M469.7,195.3h-48.9c1.7,10.9,9.4,16.5,19.7,16.5c7.3,0,14.2-3.4,17.5-9.6l9.8,3.9c-5.3,10.6-16.1,16.4-27.7,16.4
		c-17.1,0-30.9-13-30.9-32.4s13.8-32,30.9-32s29.9,12.6,29.9,32C470,191.9,469.8,193.6,469.7,195.3L469.7,195.3z M458.8,185.5
		C457.3,175,450,169,440.1,169s-17.4,5.5-19.2,16.5H458.8z"/>
	<path d="M609,130.7L579,221h-10.2l-16-57L537,221h-10.2l-30-90.3h12.5l22.6,71.4l16.5-59.1h8.9l16.6,58.8l22.5-71.1L609,130.7
		L609,130.7z"/>
	<path d="M668.2,159.8V221H657v-10.9c-4,7.3-12.3,12.4-22,12.4c-15.7,0-29.5-13.5-29.5-32.2s13-32.1,30-32.1c9,0,17.5,3.9,21.5,11.1
		v-9.6L668.2,159.8L668.2,159.8z M657,190.3c0-12.6-10.4-21.4-20.6-21.4c-10.8,0-19.6,9.8-19.6,21.4s8.8,21.5,19.8,21.5
		S657,202.8,657,190.3z"/>
	<path d="M711.4,169.6h-13V221h-11.2v-51.4h-10.8v-9.8h10.8v-23.1h11.2v23.1h13V169.6L711.4,169.6z"/>
	<path d="M713.5,190.3c0-19.4,15.1-32.1,32.3-32.1c9.4,0,17.6,3.8,22.9,9.7l-7.1,7.5c-3.7-3.9-9.1-6.4-15.4-6.4
		c-11.8,0-21.4,8.8-21.4,21.4s9.5,21.5,21.4,21.5c6.3,0,11.7-2.5,15.4-6.4l7.1,7.5c-5.3,6-13.5,9.7-22.9,9.7
		C728.5,222.6,713.5,209.7,713.5,190.3L713.5,190.3z"/>
	<path d="M833,185.6V221h-11.2v-34.7c0-10.2-6.2-16.8-14.5-16.8s-18.4,5.1-18.4,18.3V221h-11.2v-94.4h11.2v42.6
		c3.6-7.5,13.4-10.9,20-10.9C823.7,158.2,833.1,168.5,833,185.6L833,185.6z"/>
</g>
</svg>
